M48
INCH,TZ
T1C0.016
T2C0.036
T3C0.039
T4C0.039
T5C0.040
%
G90
G05
T1
X39711Y-21201
X39765Y-20594
X40886Y-21980
X46551Y-39257
X50909Y-33226
X51192Y-31909
X54352Y-42944
X54509Y-33504
X54593Y-45866
X55905Y-32263
X56586Y-43783
X56846Y-41435
X58275Y-41430
X58608Y-32300
X59262Y-37104
X60611Y-37175
X62886Y-52762
X63189Y-41535
X63316Y-49915
T2
X49213Y-25787
T3
X49213Y-19787
X50213Y-19787
X50213Y-25787
X51213Y-19787
X51213Y-25787
X52213Y-19787
X52213Y-25787
X53213Y-19787
X53213Y-25787
X54213Y-19787
X54213Y-25787
T5
X67795Y-20591
X67795Y-21591
X67795Y-22591
X68795Y-20591
X68795Y-21591
X68795Y-22591
T4
X64685Y-44094G85X64685Y-43307
G05
X66259Y-41851G85X65472Y-41851
G05
X67047Y-44094G85X67047Y-43307
G05
T0
M30
