G04 #@! TF.FileFunction,Soldermask,Top*
%FSLAX46Y46*%
G04 Gerber Fmt 4.6, Leading zero omitted, Abs format (unit mm)*
G04 Created by KiCad (PCBNEW 4.0.4-stable) date 11/18/16 12:36:53*
%MOMM*%
%LPD*%
G01*
G04 APERTURE LIST*
%ADD10C,0.100000*%
%ADD11R,2.432000X2.432000*%
%ADD12C,2.400000*%
%ADD13R,1.200000X1.150000*%
%ADD14R,1.150000X1.200000*%
%ADD15R,3.900120X3.900120*%
%ADD16R,1.197560X1.197560*%
%ADD17R,0.950000X2.000000*%
%ADD18R,2.000000X0.950000*%
%ADD19R,2.127200X2.127200*%
%ADD20O,2.127200X2.127200*%
%ADD21R,0.900000X1.300000*%
%ADD22R,1.300000X0.900000*%
%ADD23R,2.400000X2.000000*%
%ADD24R,2.000000X2.400000*%
%ADD25R,5.000000X1.790000*%
%ADD26R,9.800000X11.200000*%
%ADD27R,0.820000X1.520000*%
%ADD28R,1.000000X1.900000*%
%ADD29R,6.000700X2.500580*%
G04 APERTURE END LIST*
D10*
D11*
X125000000Y-65500000D03*
D12*
X127540000Y-65500000D03*
X130080000Y-65500000D03*
X132620000Y-65500000D03*
X135160000Y-65500000D03*
X137700000Y-65500000D03*
X132620000Y-50260000D03*
X135160000Y-50260000D03*
X125000000Y-50260000D03*
X127540000Y-50260000D03*
X137700000Y-50260000D03*
X130080000Y-50260000D03*
D13*
X139750000Y-124500000D03*
X138250000Y-124500000D03*
X135250000Y-130500000D03*
X136750000Y-130500000D03*
D14*
X154700000Y-126050000D03*
X154700000Y-127550000D03*
X159300000Y-119150000D03*
X159300000Y-120650000D03*
X159300000Y-129950000D03*
X159300000Y-128450000D03*
X155000000Y-105650000D03*
X155000000Y-107150000D03*
D15*
X164299860Y-111000000D03*
X170299340Y-111000000D03*
X167299600Y-106301000D03*
D16*
X156000000Y-79550700D03*
X156000000Y-81049300D03*
X149000000Y-79550700D03*
X149000000Y-81049300D03*
X142000000Y-79550700D03*
X142000000Y-81049300D03*
X135000000Y-79550700D03*
X135000000Y-81049300D03*
X128000000Y-79550700D03*
X128000000Y-81049300D03*
X121000000Y-79550700D03*
X121000000Y-81049300D03*
X114000000Y-79550700D03*
X114000000Y-81049300D03*
X107000000Y-79550700D03*
X107000000Y-81049300D03*
D17*
X136900000Y-120350000D03*
X137700000Y-120350000D03*
X138500000Y-120350000D03*
X139300000Y-120350000D03*
X140100000Y-120350000D03*
X140900000Y-120350000D03*
X141700000Y-120350000D03*
X142500000Y-120350000D03*
D18*
X143950000Y-118900000D03*
X143950000Y-118100000D03*
X143950000Y-117300000D03*
X143950000Y-116500000D03*
X143950000Y-115700000D03*
X143950000Y-114900000D03*
X143950000Y-114100000D03*
X143950000Y-113300000D03*
D17*
X142500000Y-111850000D03*
X141700000Y-111850000D03*
X140900000Y-111850000D03*
X140100000Y-111850000D03*
X139300000Y-111850000D03*
X138500000Y-111850000D03*
X137700000Y-111850000D03*
X136900000Y-111850000D03*
D18*
X135450000Y-113300000D03*
X135450000Y-114100000D03*
X135450000Y-114900000D03*
X135450000Y-115700000D03*
X135450000Y-116500000D03*
X135450000Y-117300000D03*
X135450000Y-118100000D03*
X135450000Y-118900000D03*
D19*
X172200000Y-52300000D03*
D20*
X174740000Y-52300000D03*
X172200000Y-54840000D03*
X174740000Y-54840000D03*
X172200000Y-57380000D03*
X174740000Y-57380000D03*
D21*
X159450000Y-135400000D03*
X160950000Y-135400000D03*
D22*
X156000000Y-76550000D03*
X156000000Y-75050000D03*
D21*
X93050000Y-64200000D03*
X94550000Y-64200000D03*
D22*
X149000000Y-76550000D03*
X149000000Y-75050000D03*
X142000000Y-76550000D03*
X142000000Y-75050000D03*
X135000000Y-76550000D03*
X135000000Y-75050000D03*
X128000000Y-76550000D03*
X128000000Y-75050000D03*
X121000000Y-76550000D03*
X121000000Y-75050000D03*
X114000000Y-76550000D03*
X114000000Y-75050000D03*
X107000000Y-76550000D03*
X107000000Y-75050000D03*
D21*
X128750000Y-94300000D03*
X127250000Y-94300000D03*
X121750000Y-94300000D03*
X120250000Y-94300000D03*
X114750000Y-94300000D03*
X113250000Y-94300000D03*
X107750000Y-94300000D03*
X106250000Y-94300000D03*
X106250000Y-98300000D03*
X107750000Y-98300000D03*
X156750000Y-94300000D03*
X155250000Y-94300000D03*
X149750000Y-94300000D03*
X148250000Y-94300000D03*
X142750000Y-94300000D03*
X141250000Y-94300000D03*
X135750000Y-94300000D03*
X134250000Y-94300000D03*
X134250000Y-98300000D03*
X135750000Y-98300000D03*
X161850000Y-140800000D03*
X163350000Y-140800000D03*
X131450000Y-112700000D03*
X129950000Y-112700000D03*
X131450000Y-116800000D03*
X129950000Y-116800000D03*
D23*
X164800000Y-135500000D03*
X170200000Y-135500000D03*
D24*
X128000000Y-85100000D03*
X128000000Y-90500000D03*
X121000000Y-85100000D03*
X121000000Y-90500000D03*
X114000000Y-85100000D03*
X114000000Y-90500000D03*
X107000000Y-85100000D03*
X107000000Y-90500000D03*
X156000000Y-85100000D03*
X156000000Y-90500000D03*
X149000000Y-85100000D03*
X149000000Y-90500000D03*
X142000000Y-85100000D03*
X142000000Y-90500000D03*
X135000000Y-85100000D03*
X135000000Y-90500000D03*
D25*
X164100000Y-124300000D03*
D26*
X173250000Y-124300000D03*
D25*
X164100000Y-126840000D03*
X164100000Y-121760000D03*
D27*
X99492500Y-59150000D03*
X99492500Y-53850000D03*
X98857500Y-59150000D03*
X98857500Y-53850000D03*
X98222500Y-59150000D03*
X98222500Y-53850000D03*
X97587500Y-59150000D03*
X97587500Y-53850000D03*
X96952500Y-59150000D03*
X96952500Y-53850000D03*
X96317500Y-59150000D03*
X96317500Y-53850000D03*
X95682500Y-59150000D03*
X95682500Y-53850000D03*
X95047500Y-59150000D03*
X95047500Y-53850000D03*
X94412500Y-59150000D03*
X94412500Y-53850000D03*
X93777500Y-59150000D03*
X93777500Y-53850000D03*
X93142500Y-59150000D03*
X93142500Y-53850000D03*
X92507500Y-59150000D03*
X92507500Y-53850000D03*
D28*
X150645000Y-101100000D03*
X149375000Y-101100000D03*
X148105000Y-101100000D03*
X146835000Y-101100000D03*
X145565000Y-101100000D03*
X144295000Y-101100000D03*
X143025000Y-101100000D03*
X141755000Y-101100000D03*
X141755000Y-106500000D03*
X143025000Y-106500000D03*
X144295000Y-106500000D03*
X145565000Y-106500000D03*
X146835000Y-106500000D03*
X148105000Y-106500000D03*
X149375000Y-106500000D03*
X150645000Y-106500000D03*
D29*
X152248860Y-130400000D03*
X142551140Y-130400000D03*
M02*
