G04 #@! TF.FileFunction,Legend,Top*
%FSLAX46Y46*%
G04 Gerber Fmt 4.6, Leading zero omitted, Abs format (unit mm)*
G04 Created by KiCad (PCBNEW 4.0.4-stable) date 11/18/16 12:36:53*
%MOMM*%
%LPD*%
G01*
G04 APERTURE LIST*
%ADD10C,0.100000*%
%ADD11C,0.300000*%
%ADD12C,0.200000*%
%ADD13C,0.150000*%
%ADD14C,0.152400*%
G04 APERTURE END LIST*
D10*
D11*
X165003571Y-84792857D02*
X163503571Y-84792857D01*
X164075000Y-84792857D02*
X164003571Y-84650000D01*
X164003571Y-84364286D01*
X164075000Y-84221429D01*
X164146429Y-84150000D01*
X164289286Y-84078571D01*
X164717857Y-84078571D01*
X164860714Y-84150000D01*
X164932143Y-84221429D01*
X165003571Y-84364286D01*
X165003571Y-84650000D01*
X164932143Y-84792857D01*
X164003571Y-83578571D02*
X165003571Y-83221428D01*
X164003571Y-82864286D02*
X165003571Y-83221428D01*
X165360714Y-83364286D01*
X165432143Y-83435714D01*
X165503571Y-83578571D01*
X166053571Y-89614285D02*
X166053571Y-89328571D01*
X166125000Y-89185713D01*
X166267857Y-89042856D01*
X166553571Y-88971428D01*
X167053571Y-88971428D01*
X167339286Y-89042856D01*
X167482143Y-89185713D01*
X167553571Y-89328571D01*
X167553571Y-89614285D01*
X167482143Y-89757142D01*
X167339286Y-89899999D01*
X167053571Y-89971428D01*
X166553571Y-89971428D01*
X166267857Y-89899999D01*
X166125000Y-89757142D01*
X166053571Y-89614285D01*
X167553571Y-88328570D02*
X166553571Y-88328570D01*
X166839286Y-88328570D02*
X166696429Y-88257142D01*
X166625000Y-88185713D01*
X166553571Y-88042856D01*
X166553571Y-87899999D01*
X167482143Y-86828571D02*
X167553571Y-86971428D01*
X167553571Y-87257142D01*
X167482143Y-87399999D01*
X167339286Y-87471428D01*
X166767857Y-87471428D01*
X166625000Y-87399999D01*
X166553571Y-87257142D01*
X166553571Y-86971428D01*
X166625000Y-86828571D01*
X166767857Y-86757142D01*
X166910714Y-86757142D01*
X167053571Y-87471428D01*
X166553571Y-86114285D02*
X167553571Y-86114285D01*
X166696429Y-86114285D02*
X166625000Y-86042857D01*
X166553571Y-85899999D01*
X166553571Y-85685714D01*
X166625000Y-85542857D01*
X166767857Y-85471428D01*
X167553571Y-85471428D01*
X166839286Y-83328571D02*
X167553571Y-83328571D01*
X166053571Y-83828571D02*
X166839286Y-83328571D01*
X166053571Y-82828571D01*
X167553571Y-81685714D02*
X166767857Y-81685714D01*
X166625000Y-81757143D01*
X166553571Y-81900000D01*
X166553571Y-82185714D01*
X166625000Y-82328571D01*
X167482143Y-81685714D02*
X167553571Y-81828571D01*
X167553571Y-82185714D01*
X167482143Y-82328571D01*
X167339286Y-82400000D01*
X167196429Y-82400000D01*
X167053571Y-82328571D01*
X166982143Y-82185714D01*
X166982143Y-81828571D01*
X166910714Y-81685714D01*
X166553571Y-80328571D02*
X167767857Y-80328571D01*
X167910714Y-80400000D01*
X167982143Y-80471428D01*
X168053571Y-80614285D01*
X168053571Y-80828571D01*
X167982143Y-80971428D01*
X167482143Y-80328571D02*
X167553571Y-80471428D01*
X167553571Y-80757142D01*
X167482143Y-80900000D01*
X167410714Y-80971428D01*
X167267857Y-81042857D01*
X166839286Y-81042857D01*
X166696429Y-80971428D01*
X166625000Y-80900000D01*
X166553571Y-80757142D01*
X166553571Y-80471428D01*
X166625000Y-80328571D01*
X167482143Y-79042857D02*
X167553571Y-79185714D01*
X167553571Y-79471428D01*
X167482143Y-79614285D01*
X167339286Y-79685714D01*
X166767857Y-79685714D01*
X166625000Y-79614285D01*
X166553571Y-79471428D01*
X166553571Y-79185714D01*
X166625000Y-79042857D01*
X166767857Y-78971428D01*
X166910714Y-78971428D01*
X167053571Y-79685714D01*
X166553571Y-78471428D02*
X167553571Y-78114285D01*
X166553571Y-77757143D01*
D12*
X163500000Y-70400000D02*
X163500000Y-70000000D01*
X163900000Y-70800000D02*
X163500000Y-70400000D01*
X164000000Y-69800000D02*
X164100000Y-69800000D01*
X164000000Y-70100000D02*
X164000000Y-69800000D01*
X164400000Y-70500000D02*
X164000000Y-70100000D01*
X168800000Y-70400000D02*
X168800000Y-70200000D01*
X168300000Y-70900000D02*
X168800000Y-70400000D01*
X168300000Y-70100000D02*
X168300000Y-69900000D01*
X167900000Y-70500000D02*
X168300000Y-70100000D01*
X167600000Y-69700000D02*
X167700000Y-69700000D01*
X167800000Y-69900000D02*
X167600000Y-69700000D01*
X167400000Y-70300000D02*
X167800000Y-69900000D01*
X166900000Y-69500000D02*
X167000000Y-69500000D01*
X166900000Y-70100000D02*
X166900000Y-69500000D01*
X166400000Y-70000000D02*
X166400000Y-69400000D01*
X165800000Y-70000000D02*
X165800000Y-69500000D01*
X165300000Y-69400000D02*
X165400000Y-69400000D01*
X165300000Y-70100000D02*
X165300000Y-69400000D01*
X164600000Y-69800000D02*
X164600000Y-69600000D01*
X165000000Y-70200000D02*
X164600000Y-69800000D01*
X164200000Y-69900000D02*
X164200000Y-69800000D01*
X165000000Y-74900000D02*
G75*
G03X167400000Y-74900000I1200000J1200000D01*
G01*
X166100000Y-73800000D02*
X166100000Y-73900000D01*
X166100000Y-72600000D02*
X166100000Y-73800000D01*
X168047214Y-71900000D02*
G75*
G03X168047214Y-71900000I-447214J0D01*
G01*
X164924264Y-71800000D02*
G75*
G03X164924264Y-71800000I-424264J0D01*
G01*
X169282766Y-73200000D02*
G75*
G03X169282766Y-73200000I-3182766J0D01*
G01*
D13*
X156500000Y-67380000D02*
X106200000Y-67380000D01*
X106200000Y-67380000D02*
X106200000Y-48380000D01*
X106200000Y-48380000D02*
X156500000Y-48380000D01*
X156500000Y-48380000D02*
X156500000Y-67380000D01*
X146980000Y-57880000D02*
X151980000Y-57880000D01*
X145230000Y-63880000D02*
X150480000Y-63880000D01*
X152730000Y-57380000D02*
X154230000Y-51880000D01*
X150980000Y-63880000D02*
X152480000Y-58380000D01*
X146480000Y-57380000D02*
X147980000Y-51880000D01*
X144730000Y-63880000D02*
X146230000Y-58380000D01*
X148480000Y-51880000D02*
X153730000Y-51880000D01*
X110150000Y-57880000D02*
X115150000Y-57880000D01*
X108400000Y-63880000D02*
X113650000Y-63880000D01*
X115900000Y-57380000D02*
X117400000Y-51880000D01*
X114150000Y-63880000D02*
X115650000Y-58380000D01*
X109650000Y-57380000D02*
X111150000Y-51880000D01*
X107900000Y-63880000D02*
X109400000Y-58380000D01*
X111650000Y-51880000D02*
X116900000Y-51880000D01*
X124350000Y-51880000D02*
X129600000Y-51880000D01*
X120600000Y-63880000D02*
X122100000Y-58380000D01*
X122350000Y-57380000D02*
X123850000Y-51880000D01*
X126850000Y-63880000D02*
X128350000Y-58380000D01*
X128600000Y-57380000D02*
X130100000Y-51880000D01*
X121100000Y-63880000D02*
X126350000Y-63880000D01*
X122850000Y-57880000D02*
X127850000Y-57880000D01*
X141235000Y-57380000D02*
X142735000Y-51880000D01*
X136985000Y-51880000D02*
X142235000Y-51880000D01*
X134985000Y-57380000D02*
X136485000Y-51880000D01*
X135485000Y-57880000D02*
X140485000Y-57880000D01*
X133735000Y-63880000D02*
X138985000Y-63880000D01*
X133235000Y-63880000D02*
X134735000Y-58380000D01*
X139485000Y-63880000D02*
X140985000Y-58380000D01*
X153730000Y-63380000D02*
G75*
G03X153730000Y-63380000I-500000J0D01*
G01*
X116900000Y-63380000D02*
G75*
G03X116900000Y-63380000I-500000J0D01*
G01*
X142235000Y-63380000D02*
G75*
G03X142235000Y-63380000I-500000J0D01*
G01*
X129600000Y-63380000D02*
G75*
G03X129600000Y-63380000I-500000J0D01*
G01*
X139350000Y-125100000D02*
X138650000Y-125100000D01*
X138650000Y-123900000D02*
X139350000Y-123900000D01*
X135650000Y-129900000D02*
X136350000Y-129900000D01*
X136350000Y-131100000D02*
X135650000Y-131100000D01*
X155300000Y-126450000D02*
X155300000Y-127150000D01*
X154100000Y-127150000D02*
X154100000Y-126450000D01*
X159900000Y-119550000D02*
X159900000Y-120250000D01*
X158700000Y-120250000D02*
X158700000Y-119550000D01*
X158700000Y-129550000D02*
X158700000Y-128850000D01*
X159900000Y-128850000D02*
X159900000Y-129550000D01*
X155600000Y-106050000D02*
X155600000Y-106750000D01*
X154400000Y-106750000D02*
X154400000Y-106050000D01*
X174500500Y-115500880D02*
X174500500Y-106499120D01*
X178000620Y-115500880D02*
X178000620Y-106499120D01*
X178000620Y-106499120D02*
X163499760Y-106499120D01*
X163499760Y-106499120D02*
X163499760Y-115500880D01*
X163499760Y-115500880D02*
X178000620Y-115500880D01*
X156550000Y-81400000D02*
X156550000Y-79500000D01*
X155450000Y-81400000D02*
X155450000Y-79500000D01*
X156000000Y-80500000D02*
X156000000Y-80050000D01*
X155750000Y-80550000D02*
X156250000Y-80550000D01*
X156000000Y-80550000D02*
X155750000Y-80300000D01*
X155750000Y-80300000D02*
X156250000Y-80300000D01*
X156250000Y-80300000D02*
X156000000Y-80550000D01*
X149550000Y-81400000D02*
X149550000Y-79500000D01*
X148450000Y-81400000D02*
X148450000Y-79500000D01*
X149000000Y-80500000D02*
X149000000Y-80050000D01*
X148750000Y-80550000D02*
X149250000Y-80550000D01*
X149000000Y-80550000D02*
X148750000Y-80300000D01*
X148750000Y-80300000D02*
X149250000Y-80300000D01*
X149250000Y-80300000D02*
X149000000Y-80550000D01*
X142550000Y-81400000D02*
X142550000Y-79500000D01*
X141450000Y-81400000D02*
X141450000Y-79500000D01*
X142000000Y-80500000D02*
X142000000Y-80050000D01*
X141750000Y-80550000D02*
X142250000Y-80550000D01*
X142000000Y-80550000D02*
X141750000Y-80300000D01*
X141750000Y-80300000D02*
X142250000Y-80300000D01*
X142250000Y-80300000D02*
X142000000Y-80550000D01*
X135550000Y-81400000D02*
X135550000Y-79500000D01*
X134450000Y-81400000D02*
X134450000Y-79500000D01*
X135000000Y-80500000D02*
X135000000Y-80050000D01*
X134750000Y-80550000D02*
X135250000Y-80550000D01*
X135000000Y-80550000D02*
X134750000Y-80300000D01*
X134750000Y-80300000D02*
X135250000Y-80300000D01*
X135250000Y-80300000D02*
X135000000Y-80550000D01*
X128550000Y-81400000D02*
X128550000Y-79500000D01*
X127450000Y-81400000D02*
X127450000Y-79500000D01*
X128000000Y-80500000D02*
X128000000Y-80050000D01*
X127750000Y-80550000D02*
X128250000Y-80550000D01*
X128000000Y-80550000D02*
X127750000Y-80300000D01*
X127750000Y-80300000D02*
X128250000Y-80300000D01*
X128250000Y-80300000D02*
X128000000Y-80550000D01*
X121550000Y-81400000D02*
X121550000Y-79500000D01*
X120450000Y-81400000D02*
X120450000Y-79500000D01*
X121000000Y-80500000D02*
X121000000Y-80050000D01*
X120750000Y-80550000D02*
X121250000Y-80550000D01*
X121000000Y-80550000D02*
X120750000Y-80300000D01*
X120750000Y-80300000D02*
X121250000Y-80300000D01*
X121250000Y-80300000D02*
X121000000Y-80550000D01*
X114550000Y-81400000D02*
X114550000Y-79500000D01*
X113450000Y-81400000D02*
X113450000Y-79500000D01*
X114000000Y-80500000D02*
X114000000Y-80050000D01*
X113750000Y-80550000D02*
X114250000Y-80550000D01*
X114000000Y-80550000D02*
X113750000Y-80300000D01*
X113750000Y-80300000D02*
X114250000Y-80300000D01*
X114250000Y-80300000D02*
X114000000Y-80550000D01*
X107550000Y-81400000D02*
X107550000Y-79500000D01*
X106450000Y-81400000D02*
X106450000Y-79500000D01*
X107000000Y-80500000D02*
X107000000Y-80050000D01*
X106750000Y-80550000D02*
X107250000Y-80550000D01*
X107000000Y-80550000D02*
X106750000Y-80300000D01*
X106750000Y-80300000D02*
X107250000Y-80300000D01*
X107250000Y-80300000D02*
X107000000Y-80550000D01*
X136075000Y-119725000D02*
X136300000Y-119725000D01*
X136075000Y-112475000D02*
X136400000Y-112475000D01*
X143325000Y-112475000D02*
X143000000Y-112475000D01*
X143325000Y-119725000D02*
X143000000Y-119725000D01*
X136075000Y-119725000D02*
X136075000Y-119400000D01*
X143325000Y-119725000D02*
X143325000Y-119400000D01*
X143325000Y-112475000D02*
X143325000Y-112800000D01*
X136075000Y-112475000D02*
X136075000Y-112800000D01*
X136300000Y-119725000D02*
X136300000Y-121150000D01*
X170930000Y-53570000D02*
X170930000Y-58650000D01*
X170650000Y-50750000D02*
X172200000Y-50750000D01*
X173470000Y-51030000D02*
X173470000Y-53570000D01*
X173470000Y-53570000D02*
X170930000Y-53570000D01*
X170930000Y-58650000D02*
X176010000Y-58650000D01*
X176010000Y-58650000D02*
X176010000Y-53570000D01*
X170650000Y-50750000D02*
X170650000Y-52300000D01*
X176010000Y-51030000D02*
X173470000Y-51030000D01*
X176010000Y-53570000D02*
X176010000Y-51030000D01*
X160700000Y-136075000D02*
X159700000Y-136075000D01*
X159700000Y-134725000D02*
X160700000Y-134725000D01*
X156675000Y-75300000D02*
X156675000Y-76300000D01*
X155325000Y-76300000D02*
X155325000Y-75300000D01*
X94300000Y-64875000D02*
X93300000Y-64875000D01*
X93300000Y-63525000D02*
X94300000Y-63525000D01*
X149675000Y-75300000D02*
X149675000Y-76300000D01*
X148325000Y-76300000D02*
X148325000Y-75300000D01*
X142675000Y-75300000D02*
X142675000Y-76300000D01*
X141325000Y-76300000D02*
X141325000Y-75300000D01*
X135675000Y-75300000D02*
X135675000Y-76300000D01*
X134325000Y-76300000D02*
X134325000Y-75300000D01*
X128675000Y-75300000D02*
X128675000Y-76300000D01*
X127325000Y-76300000D02*
X127325000Y-75300000D01*
X121675000Y-75300000D02*
X121675000Y-76300000D01*
X120325000Y-76300000D02*
X120325000Y-75300000D01*
X114675000Y-75300000D02*
X114675000Y-76300000D01*
X113325000Y-76300000D02*
X113325000Y-75300000D01*
X107675000Y-75300000D02*
X107675000Y-76300000D01*
X106325000Y-76300000D02*
X106325000Y-75300000D01*
X127500000Y-93625000D02*
X128500000Y-93625000D01*
X128500000Y-94975000D02*
X127500000Y-94975000D01*
X120500000Y-93625000D02*
X121500000Y-93625000D01*
X121500000Y-94975000D02*
X120500000Y-94975000D01*
X113500000Y-93625000D02*
X114500000Y-93625000D01*
X114500000Y-94975000D02*
X113500000Y-94975000D01*
X106500000Y-93625000D02*
X107500000Y-93625000D01*
X107500000Y-94975000D02*
X106500000Y-94975000D01*
X107500000Y-98975000D02*
X106500000Y-98975000D01*
X106500000Y-97625000D02*
X107500000Y-97625000D01*
X155500000Y-93625000D02*
X156500000Y-93625000D01*
X156500000Y-94975000D02*
X155500000Y-94975000D01*
X148500000Y-93625000D02*
X149500000Y-93625000D01*
X149500000Y-94975000D02*
X148500000Y-94975000D01*
X141500000Y-93625000D02*
X142500000Y-93625000D01*
X142500000Y-94975000D02*
X141500000Y-94975000D01*
X134500000Y-93625000D02*
X135500000Y-93625000D01*
X135500000Y-94975000D02*
X134500000Y-94975000D01*
X135500000Y-98975000D02*
X134500000Y-98975000D01*
X134500000Y-97625000D02*
X135500000Y-97625000D01*
X163100000Y-141475000D02*
X162100000Y-141475000D01*
X162100000Y-140125000D02*
X163100000Y-140125000D01*
X130200000Y-112025000D02*
X131200000Y-112025000D01*
X131200000Y-113375000D02*
X130200000Y-113375000D01*
X130200000Y-116125000D02*
X131200000Y-116125000D01*
X131200000Y-117475000D02*
X130200000Y-117475000D01*
X168900000Y-136200000D02*
X166100000Y-136200000D01*
X166100000Y-136200000D02*
X166100000Y-134800000D01*
X166100000Y-134800000D02*
X168900000Y-134800000D01*
X168900000Y-134800000D02*
X168900000Y-136200000D01*
X164500000Y-137250000D02*
X164500000Y-136600000D01*
X164500000Y-133750000D02*
X164500000Y-134400000D01*
X170500000Y-134400000D02*
X170500000Y-133750000D01*
X170500000Y-137250000D02*
X170500000Y-136600000D01*
X164500000Y-137250000D02*
X170500000Y-137250000D01*
X170500000Y-133750000D02*
X164500000Y-133750000D01*
X127300000Y-89200000D02*
X127300000Y-86400000D01*
X127300000Y-86400000D02*
X128700000Y-86400000D01*
X128700000Y-86400000D02*
X128700000Y-89200000D01*
X128700000Y-89200000D02*
X127300000Y-89200000D01*
X126250000Y-84800000D02*
X126900000Y-84800000D01*
X129750000Y-84800000D02*
X129100000Y-84800000D01*
X129100000Y-90800000D02*
X129750000Y-90800000D01*
X126250000Y-90800000D02*
X126900000Y-90800000D01*
X126250000Y-84800000D02*
X126250000Y-90800000D01*
X129750000Y-90800000D02*
X129750000Y-84800000D01*
X120300000Y-89200000D02*
X120300000Y-86400000D01*
X120300000Y-86400000D02*
X121700000Y-86400000D01*
X121700000Y-86400000D02*
X121700000Y-89200000D01*
X121700000Y-89200000D02*
X120300000Y-89200000D01*
X119250000Y-84800000D02*
X119900000Y-84800000D01*
X122750000Y-84800000D02*
X122100000Y-84800000D01*
X122100000Y-90800000D02*
X122750000Y-90800000D01*
X119250000Y-90800000D02*
X119900000Y-90800000D01*
X119250000Y-84800000D02*
X119250000Y-90800000D01*
X122750000Y-90800000D02*
X122750000Y-84800000D01*
X113300000Y-89200000D02*
X113300000Y-86400000D01*
X113300000Y-86400000D02*
X114700000Y-86400000D01*
X114700000Y-86400000D02*
X114700000Y-89200000D01*
X114700000Y-89200000D02*
X113300000Y-89200000D01*
X112250000Y-84800000D02*
X112900000Y-84800000D01*
X115750000Y-84800000D02*
X115100000Y-84800000D01*
X115100000Y-90800000D02*
X115750000Y-90800000D01*
X112250000Y-90800000D02*
X112900000Y-90800000D01*
X112250000Y-84800000D02*
X112250000Y-90800000D01*
X115750000Y-90800000D02*
X115750000Y-84800000D01*
X106300000Y-89200000D02*
X106300000Y-86400000D01*
X106300000Y-86400000D02*
X107700000Y-86400000D01*
X107700000Y-86400000D02*
X107700000Y-89200000D01*
X107700000Y-89200000D02*
X106300000Y-89200000D01*
X105250000Y-84800000D02*
X105900000Y-84800000D01*
X108750000Y-84800000D02*
X108100000Y-84800000D01*
X108100000Y-90800000D02*
X108750000Y-90800000D01*
X105250000Y-90800000D02*
X105900000Y-90800000D01*
X105250000Y-84800000D02*
X105250000Y-90800000D01*
X108750000Y-90800000D02*
X108750000Y-84800000D01*
X155300000Y-89200000D02*
X155300000Y-86400000D01*
X155300000Y-86400000D02*
X156700000Y-86400000D01*
X156700000Y-86400000D02*
X156700000Y-89200000D01*
X156700000Y-89200000D02*
X155300000Y-89200000D01*
X154250000Y-84800000D02*
X154900000Y-84800000D01*
X157750000Y-84800000D02*
X157100000Y-84800000D01*
X157100000Y-90800000D02*
X157750000Y-90800000D01*
X154250000Y-90800000D02*
X154900000Y-90800000D01*
X154250000Y-84800000D02*
X154250000Y-90800000D01*
X157750000Y-90800000D02*
X157750000Y-84800000D01*
X148300000Y-89200000D02*
X148300000Y-86400000D01*
X148300000Y-86400000D02*
X149700000Y-86400000D01*
X149700000Y-86400000D02*
X149700000Y-89200000D01*
X149700000Y-89200000D02*
X148300000Y-89200000D01*
X147250000Y-84800000D02*
X147900000Y-84800000D01*
X150750000Y-84800000D02*
X150100000Y-84800000D01*
X150100000Y-90800000D02*
X150750000Y-90800000D01*
X147250000Y-90800000D02*
X147900000Y-90800000D01*
X147250000Y-84800000D02*
X147250000Y-90800000D01*
X150750000Y-90800000D02*
X150750000Y-84800000D01*
X141300000Y-89200000D02*
X141300000Y-86400000D01*
X141300000Y-86400000D02*
X142700000Y-86400000D01*
X142700000Y-86400000D02*
X142700000Y-89200000D01*
X142700000Y-89200000D02*
X141300000Y-89200000D01*
X140250000Y-84800000D02*
X140900000Y-84800000D01*
X143750000Y-84800000D02*
X143100000Y-84800000D01*
X143100000Y-90800000D02*
X143750000Y-90800000D01*
X140250000Y-90800000D02*
X140900000Y-90800000D01*
X140250000Y-84800000D02*
X140250000Y-90800000D01*
X143750000Y-90800000D02*
X143750000Y-84800000D01*
X134300000Y-89200000D02*
X134300000Y-86400000D01*
X134300000Y-86400000D02*
X135700000Y-86400000D01*
X135700000Y-86400000D02*
X135700000Y-89200000D01*
X135700000Y-89200000D02*
X134300000Y-89200000D01*
X133250000Y-84800000D02*
X133900000Y-84800000D01*
X136750000Y-84800000D02*
X136100000Y-84800000D01*
X136100000Y-90800000D02*
X136750000Y-90800000D01*
X133250000Y-90800000D02*
X133900000Y-90800000D01*
X133250000Y-84800000D02*
X133250000Y-90800000D01*
X136750000Y-90800000D02*
X136750000Y-84800000D01*
X166600000Y-129300000D02*
X166600000Y-128050000D01*
X166600000Y-129300000D02*
X168100000Y-129300000D01*
X166600000Y-119300000D02*
X168100000Y-119300000D01*
X166600000Y-119300000D02*
X166600000Y-120550000D01*
X101208782Y-53100000D02*
G75*
G03X101208782Y-53100000I-368782J0D01*
G01*
X100202500Y-60210000D02*
X100202500Y-52790000D01*
X100202500Y-52790000D02*
X91797500Y-52790000D01*
X91797500Y-52790000D02*
X91797500Y-60210000D01*
X91797500Y-60210000D02*
X100202500Y-60210000D01*
X151275000Y-101725000D02*
X151250000Y-101725000D01*
X151275000Y-105875000D02*
X151170000Y-105875000D01*
X141125000Y-105875000D02*
X141230000Y-105875000D01*
X141125000Y-101725000D02*
X141230000Y-101725000D01*
X151275000Y-101725000D02*
X151275000Y-105875000D01*
X141125000Y-101725000D02*
X141125000Y-105875000D01*
X151250000Y-101725000D02*
X151250000Y-100350000D01*
X153249620Y-127900640D02*
X141550380Y-127900640D01*
X141550380Y-132899360D02*
X153249620Y-132899360D01*
X141550380Y-127900640D02*
X141550380Y-128749000D01*
X141550380Y-132899360D02*
X141550380Y-132051000D01*
X153249620Y-127900640D02*
X153249620Y-128749000D01*
X153249620Y-132899360D02*
X153249620Y-132051000D01*
X129778571Y-47046667D02*
X130254762Y-47046667D01*
X129683333Y-47332381D02*
X130016666Y-46332381D01*
X130350000Y-47332381D01*
X131016667Y-46808571D02*
X130683333Y-46808571D01*
X130683333Y-47332381D02*
X130683333Y-46332381D01*
X131159524Y-46332381D01*
X131873810Y-46808571D02*
X131540476Y-46808571D01*
X131540476Y-47332381D02*
X131540476Y-46332381D01*
X132016667Y-46332381D01*
X132921429Y-47332381D02*
X132350000Y-47332381D01*
X132635714Y-47332381D02*
X132635714Y-46332381D01*
X132540476Y-46475238D01*
X132445238Y-46570476D01*
X132350000Y-46618095D01*
X138833334Y-126757143D02*
X138785715Y-126804762D01*
X138642858Y-126852381D01*
X138547620Y-126852381D01*
X138404762Y-126804762D01*
X138309524Y-126709524D01*
X138261905Y-126614286D01*
X138214286Y-126423810D01*
X138214286Y-126280952D01*
X138261905Y-126090476D01*
X138309524Y-125995238D01*
X138404762Y-125900000D01*
X138547620Y-125852381D01*
X138642858Y-125852381D01*
X138785715Y-125900000D01*
X138833334Y-125947619D01*
X139785715Y-126852381D02*
X139214286Y-126852381D01*
X139500000Y-126852381D02*
X139500000Y-125852381D01*
X139404762Y-125995238D01*
X139309524Y-126090476D01*
X139214286Y-126138095D01*
X135833334Y-128957143D02*
X135785715Y-129004762D01*
X135642858Y-129052381D01*
X135547620Y-129052381D01*
X135404762Y-129004762D01*
X135309524Y-128909524D01*
X135261905Y-128814286D01*
X135214286Y-128623810D01*
X135214286Y-128480952D01*
X135261905Y-128290476D01*
X135309524Y-128195238D01*
X135404762Y-128100000D01*
X135547620Y-128052381D01*
X135642858Y-128052381D01*
X135785715Y-128100000D01*
X135833334Y-128147619D01*
X136214286Y-128147619D02*
X136261905Y-128100000D01*
X136357143Y-128052381D01*
X136595239Y-128052381D01*
X136690477Y-128100000D01*
X136738096Y-128147619D01*
X136785715Y-128242857D01*
X136785715Y-128338095D01*
X136738096Y-128480952D01*
X136166667Y-129052381D01*
X136785715Y-129052381D01*
X156957143Y-126966666D02*
X157004762Y-127014285D01*
X157052381Y-127157142D01*
X157052381Y-127252380D01*
X157004762Y-127395238D01*
X156909524Y-127490476D01*
X156814286Y-127538095D01*
X156623810Y-127585714D01*
X156480952Y-127585714D01*
X156290476Y-127538095D01*
X156195238Y-127490476D01*
X156100000Y-127395238D01*
X156052381Y-127252380D01*
X156052381Y-127157142D01*
X156100000Y-127014285D01*
X156147619Y-126966666D01*
X156052381Y-126633333D02*
X156052381Y-126014285D01*
X156433333Y-126347619D01*
X156433333Y-126204761D01*
X156480952Y-126109523D01*
X156528571Y-126061904D01*
X156623810Y-126014285D01*
X156861905Y-126014285D01*
X156957143Y-126061904D01*
X157004762Y-126109523D01*
X157052381Y-126204761D01*
X157052381Y-126490476D01*
X157004762Y-126585714D01*
X156957143Y-126633333D01*
X160157143Y-117466666D02*
X160204762Y-117514285D01*
X160252381Y-117657142D01*
X160252381Y-117752380D01*
X160204762Y-117895238D01*
X160109524Y-117990476D01*
X160014286Y-118038095D01*
X159823810Y-118085714D01*
X159680952Y-118085714D01*
X159490476Y-118038095D01*
X159395238Y-117990476D01*
X159300000Y-117895238D01*
X159252381Y-117752380D01*
X159252381Y-117657142D01*
X159300000Y-117514285D01*
X159347619Y-117466666D01*
X159585714Y-116609523D02*
X160252381Y-116609523D01*
X159204762Y-116847619D02*
X159919048Y-117085714D01*
X159919048Y-116466666D01*
X157857143Y-130066666D02*
X157904762Y-130114285D01*
X157952381Y-130257142D01*
X157952381Y-130352380D01*
X157904762Y-130495238D01*
X157809524Y-130590476D01*
X157714286Y-130638095D01*
X157523810Y-130685714D01*
X157380952Y-130685714D01*
X157190476Y-130638095D01*
X157095238Y-130590476D01*
X157000000Y-130495238D01*
X156952381Y-130352380D01*
X156952381Y-130257142D01*
X157000000Y-130114285D01*
X157047619Y-130066666D01*
X156952381Y-129161904D02*
X156952381Y-129638095D01*
X157428571Y-129685714D01*
X157380952Y-129638095D01*
X157333333Y-129542857D01*
X157333333Y-129304761D01*
X157380952Y-129209523D01*
X157428571Y-129161904D01*
X157523810Y-129114285D01*
X157761905Y-129114285D01*
X157857143Y-129161904D01*
X157904762Y-129209523D01*
X157952381Y-129304761D01*
X157952381Y-129542857D01*
X157904762Y-129638095D01*
X157857143Y-129685714D01*
X157257143Y-106566666D02*
X157304762Y-106614285D01*
X157352381Y-106757142D01*
X157352381Y-106852380D01*
X157304762Y-106995238D01*
X157209524Y-107090476D01*
X157114286Y-107138095D01*
X156923810Y-107185714D01*
X156780952Y-107185714D01*
X156590476Y-107138095D01*
X156495238Y-107090476D01*
X156400000Y-106995238D01*
X156352381Y-106852380D01*
X156352381Y-106757142D01*
X156400000Y-106614285D01*
X156447619Y-106566666D01*
X156352381Y-105709523D02*
X156352381Y-105900000D01*
X156400000Y-105995238D01*
X156447619Y-106042857D01*
X156590476Y-106138095D01*
X156780952Y-106185714D01*
X157161905Y-106185714D01*
X157257143Y-106138095D01*
X157304762Y-106090476D01*
X157352381Y-105995238D01*
X157352381Y-105804761D01*
X157304762Y-105709523D01*
X157257143Y-105661904D01*
X157161905Y-105614285D01*
X156923810Y-105614285D01*
X156828571Y-105661904D01*
X156780952Y-105709523D01*
X156733333Y-105804761D01*
X156733333Y-105995238D01*
X156780952Y-106090476D01*
X156828571Y-106138095D01*
X156923810Y-106185714D01*
X160758103Y-112214285D02*
X160805722Y-112261904D01*
X160853341Y-112404761D01*
X160853341Y-112499999D01*
X160805722Y-112642857D01*
X160710484Y-112738095D01*
X160615246Y-112785714D01*
X160424770Y-112833333D01*
X160281912Y-112833333D01*
X160091436Y-112785714D01*
X159996198Y-112738095D01*
X159900960Y-112642857D01*
X159853341Y-112499999D01*
X159853341Y-112404761D01*
X159900960Y-112261904D01*
X159948579Y-112214285D01*
X159853341Y-111595238D02*
X159853341Y-111404761D01*
X159900960Y-111309523D01*
X159996198Y-111214285D01*
X160186674Y-111166666D01*
X160520008Y-111166666D01*
X160710484Y-111214285D01*
X160805722Y-111309523D01*
X160853341Y-111404761D01*
X160853341Y-111595238D01*
X160805722Y-111690476D01*
X160710484Y-111785714D01*
X160520008Y-111833333D01*
X160186674Y-111833333D01*
X159996198Y-111785714D01*
X159900960Y-111690476D01*
X159853341Y-111595238D01*
X160853341Y-110738095D02*
X159853341Y-110738095D01*
X160853341Y-110166666D01*
X159853341Y-110166666D01*
X160853341Y-109166666D02*
X160853341Y-109738095D01*
X160853341Y-109452381D02*
X159853341Y-109452381D01*
X159996198Y-109547619D01*
X160091436Y-109642857D01*
X160139055Y-109738095D01*
X154952381Y-81038095D02*
X153952381Y-81038095D01*
X153952381Y-80800000D01*
X154000000Y-80657142D01*
X154095238Y-80561904D01*
X154190476Y-80514285D01*
X154380952Y-80466666D01*
X154523810Y-80466666D01*
X154714286Y-80514285D01*
X154809524Y-80561904D01*
X154904762Y-80657142D01*
X154952381Y-80800000D01*
X154952381Y-81038095D01*
X154952381Y-79514285D02*
X154952381Y-80085714D01*
X154952381Y-79800000D02*
X153952381Y-79800000D01*
X154095238Y-79895238D01*
X154190476Y-79990476D01*
X154238095Y-80085714D01*
X147952381Y-81038095D02*
X146952381Y-81038095D01*
X146952381Y-80800000D01*
X147000000Y-80657142D01*
X147095238Y-80561904D01*
X147190476Y-80514285D01*
X147380952Y-80466666D01*
X147523810Y-80466666D01*
X147714286Y-80514285D01*
X147809524Y-80561904D01*
X147904762Y-80657142D01*
X147952381Y-80800000D01*
X147952381Y-81038095D01*
X147047619Y-80085714D02*
X147000000Y-80038095D01*
X146952381Y-79942857D01*
X146952381Y-79704761D01*
X147000000Y-79609523D01*
X147047619Y-79561904D01*
X147142857Y-79514285D01*
X147238095Y-79514285D01*
X147380952Y-79561904D01*
X147952381Y-80133333D01*
X147952381Y-79514285D01*
X140952381Y-81038095D02*
X139952381Y-81038095D01*
X139952381Y-80800000D01*
X140000000Y-80657142D01*
X140095238Y-80561904D01*
X140190476Y-80514285D01*
X140380952Y-80466666D01*
X140523810Y-80466666D01*
X140714286Y-80514285D01*
X140809524Y-80561904D01*
X140904762Y-80657142D01*
X140952381Y-80800000D01*
X140952381Y-81038095D01*
X139952381Y-80133333D02*
X139952381Y-79514285D01*
X140333333Y-79847619D01*
X140333333Y-79704761D01*
X140380952Y-79609523D01*
X140428571Y-79561904D01*
X140523810Y-79514285D01*
X140761905Y-79514285D01*
X140857143Y-79561904D01*
X140904762Y-79609523D01*
X140952381Y-79704761D01*
X140952381Y-79990476D01*
X140904762Y-80085714D01*
X140857143Y-80133333D01*
X133952381Y-81038095D02*
X132952381Y-81038095D01*
X132952381Y-80800000D01*
X133000000Y-80657142D01*
X133095238Y-80561904D01*
X133190476Y-80514285D01*
X133380952Y-80466666D01*
X133523810Y-80466666D01*
X133714286Y-80514285D01*
X133809524Y-80561904D01*
X133904762Y-80657142D01*
X133952381Y-80800000D01*
X133952381Y-81038095D01*
X133285714Y-79609523D02*
X133952381Y-79609523D01*
X132904762Y-79847619D02*
X133619048Y-80085714D01*
X133619048Y-79466666D01*
X126952381Y-81038095D02*
X125952381Y-81038095D01*
X125952381Y-80800000D01*
X126000000Y-80657142D01*
X126095238Y-80561904D01*
X126190476Y-80514285D01*
X126380952Y-80466666D01*
X126523810Y-80466666D01*
X126714286Y-80514285D01*
X126809524Y-80561904D01*
X126904762Y-80657142D01*
X126952381Y-80800000D01*
X126952381Y-81038095D01*
X125952381Y-79561904D02*
X125952381Y-80038095D01*
X126428571Y-80085714D01*
X126380952Y-80038095D01*
X126333333Y-79942857D01*
X126333333Y-79704761D01*
X126380952Y-79609523D01*
X126428571Y-79561904D01*
X126523810Y-79514285D01*
X126761905Y-79514285D01*
X126857143Y-79561904D01*
X126904762Y-79609523D01*
X126952381Y-79704761D01*
X126952381Y-79942857D01*
X126904762Y-80038095D01*
X126857143Y-80085714D01*
X119952381Y-81038095D02*
X118952381Y-81038095D01*
X118952381Y-80800000D01*
X119000000Y-80657142D01*
X119095238Y-80561904D01*
X119190476Y-80514285D01*
X119380952Y-80466666D01*
X119523810Y-80466666D01*
X119714286Y-80514285D01*
X119809524Y-80561904D01*
X119904762Y-80657142D01*
X119952381Y-80800000D01*
X119952381Y-81038095D01*
X118952381Y-79609523D02*
X118952381Y-79800000D01*
X119000000Y-79895238D01*
X119047619Y-79942857D01*
X119190476Y-80038095D01*
X119380952Y-80085714D01*
X119761905Y-80085714D01*
X119857143Y-80038095D01*
X119904762Y-79990476D01*
X119952381Y-79895238D01*
X119952381Y-79704761D01*
X119904762Y-79609523D01*
X119857143Y-79561904D01*
X119761905Y-79514285D01*
X119523810Y-79514285D01*
X119428571Y-79561904D01*
X119380952Y-79609523D01*
X119333333Y-79704761D01*
X119333333Y-79895238D01*
X119380952Y-79990476D01*
X119428571Y-80038095D01*
X119523810Y-80085714D01*
X112952381Y-81038095D02*
X111952381Y-81038095D01*
X111952381Y-80800000D01*
X112000000Y-80657142D01*
X112095238Y-80561904D01*
X112190476Y-80514285D01*
X112380952Y-80466666D01*
X112523810Y-80466666D01*
X112714286Y-80514285D01*
X112809524Y-80561904D01*
X112904762Y-80657142D01*
X112952381Y-80800000D01*
X112952381Y-81038095D01*
X111952381Y-80133333D02*
X111952381Y-79466666D01*
X112952381Y-79895238D01*
X105952381Y-81038095D02*
X104952381Y-81038095D01*
X104952381Y-80800000D01*
X105000000Y-80657142D01*
X105095238Y-80561904D01*
X105190476Y-80514285D01*
X105380952Y-80466666D01*
X105523810Y-80466666D01*
X105714286Y-80514285D01*
X105809524Y-80561904D01*
X105904762Y-80657142D01*
X105952381Y-80800000D01*
X105952381Y-81038095D01*
X105380952Y-79895238D02*
X105333333Y-79990476D01*
X105285714Y-80038095D01*
X105190476Y-80085714D01*
X105142857Y-80085714D01*
X105047619Y-80038095D01*
X105000000Y-79990476D01*
X104952381Y-79895238D01*
X104952381Y-79704761D01*
X105000000Y-79609523D01*
X105047619Y-79561904D01*
X105142857Y-79514285D01*
X105190476Y-79514285D01*
X105285714Y-79561904D01*
X105333333Y-79609523D01*
X105380952Y-79704761D01*
X105380952Y-79895238D01*
X105428571Y-79990476D01*
X105476190Y-80038095D01*
X105571429Y-80085714D01*
X105761905Y-80085714D01*
X105857143Y-80038095D01*
X105904762Y-79990476D01*
X105952381Y-79895238D01*
X105952381Y-79704761D01*
X105904762Y-79609523D01*
X105857143Y-79561904D01*
X105761905Y-79514285D01*
X105571429Y-79514285D01*
X105476190Y-79561904D01*
X105428571Y-79609523D01*
X105380952Y-79704761D01*
X134102381Y-117076190D02*
X133102381Y-117076190D01*
X134007143Y-116028571D02*
X134054762Y-116076190D01*
X134102381Y-116219047D01*
X134102381Y-116314285D01*
X134054762Y-116457143D01*
X133959524Y-116552381D01*
X133864286Y-116600000D01*
X133673810Y-116647619D01*
X133530952Y-116647619D01*
X133340476Y-116600000D01*
X133245238Y-116552381D01*
X133150000Y-116457143D01*
X133102381Y-116314285D01*
X133102381Y-116219047D01*
X133150000Y-116076190D01*
X133197619Y-116028571D01*
X134102381Y-115076190D02*
X134102381Y-115647619D01*
X134102381Y-115361905D02*
X133102381Y-115361905D01*
X133245238Y-115457143D01*
X133340476Y-115552381D01*
X133388095Y-115647619D01*
X171461905Y-47652381D02*
X171461905Y-46652381D01*
X171842858Y-46652381D01*
X171938096Y-46700000D01*
X171985715Y-46747619D01*
X172033334Y-46842857D01*
X172033334Y-46985714D01*
X171985715Y-47080952D01*
X171938096Y-47128571D01*
X171842858Y-47176190D01*
X171461905Y-47176190D01*
X172985715Y-47652381D02*
X172414286Y-47652381D01*
X172700000Y-47652381D02*
X172700000Y-46652381D01*
X172604762Y-46795238D01*
X172509524Y-46890476D01*
X172414286Y-46938095D01*
X160033334Y-133952381D02*
X159700000Y-133476190D01*
X159461905Y-133952381D02*
X159461905Y-132952381D01*
X159842858Y-132952381D01*
X159938096Y-133000000D01*
X159985715Y-133047619D01*
X160033334Y-133142857D01*
X160033334Y-133285714D01*
X159985715Y-133380952D01*
X159938096Y-133428571D01*
X159842858Y-133476190D01*
X159461905Y-133476190D01*
X160985715Y-133952381D02*
X160414286Y-133952381D01*
X160700000Y-133952381D02*
X160700000Y-132952381D01*
X160604762Y-133095238D01*
X160509524Y-133190476D01*
X160414286Y-133238095D01*
X154552381Y-75966666D02*
X154076190Y-76300000D01*
X154552381Y-76538095D02*
X153552381Y-76538095D01*
X153552381Y-76157142D01*
X153600000Y-76061904D01*
X153647619Y-76014285D01*
X153742857Y-75966666D01*
X153885714Y-75966666D01*
X153980952Y-76014285D01*
X154028571Y-76061904D01*
X154076190Y-76157142D01*
X154076190Y-76538095D01*
X153647619Y-75585714D02*
X153600000Y-75538095D01*
X153552381Y-75442857D01*
X153552381Y-75204761D01*
X153600000Y-75109523D01*
X153647619Y-75061904D01*
X153742857Y-75014285D01*
X153838095Y-75014285D01*
X153980952Y-75061904D01*
X154552381Y-75633333D01*
X154552381Y-75014285D01*
X93633334Y-62752381D02*
X93300000Y-62276190D01*
X93061905Y-62752381D02*
X93061905Y-61752381D01*
X93442858Y-61752381D01*
X93538096Y-61800000D01*
X93585715Y-61847619D01*
X93633334Y-61942857D01*
X93633334Y-62085714D01*
X93585715Y-62180952D01*
X93538096Y-62228571D01*
X93442858Y-62276190D01*
X93061905Y-62276190D01*
X93966667Y-61752381D02*
X94585715Y-61752381D01*
X94252381Y-62133333D01*
X94395239Y-62133333D01*
X94490477Y-62180952D01*
X94538096Y-62228571D01*
X94585715Y-62323810D01*
X94585715Y-62561905D01*
X94538096Y-62657143D01*
X94490477Y-62704762D01*
X94395239Y-62752381D01*
X94109524Y-62752381D01*
X94014286Y-62704762D01*
X93966667Y-62657143D01*
X147552381Y-75966666D02*
X147076190Y-76300000D01*
X147552381Y-76538095D02*
X146552381Y-76538095D01*
X146552381Y-76157142D01*
X146600000Y-76061904D01*
X146647619Y-76014285D01*
X146742857Y-75966666D01*
X146885714Y-75966666D01*
X146980952Y-76014285D01*
X147028571Y-76061904D01*
X147076190Y-76157142D01*
X147076190Y-76538095D01*
X146885714Y-75109523D02*
X147552381Y-75109523D01*
X146504762Y-75347619D02*
X147219048Y-75585714D01*
X147219048Y-74966666D01*
X140552381Y-75966666D02*
X140076190Y-76300000D01*
X140552381Y-76538095D02*
X139552381Y-76538095D01*
X139552381Y-76157142D01*
X139600000Y-76061904D01*
X139647619Y-76014285D01*
X139742857Y-75966666D01*
X139885714Y-75966666D01*
X139980952Y-76014285D01*
X140028571Y-76061904D01*
X140076190Y-76157142D01*
X140076190Y-76538095D01*
X139552381Y-75061904D02*
X139552381Y-75538095D01*
X140028571Y-75585714D01*
X139980952Y-75538095D01*
X139933333Y-75442857D01*
X139933333Y-75204761D01*
X139980952Y-75109523D01*
X140028571Y-75061904D01*
X140123810Y-75014285D01*
X140361905Y-75014285D01*
X140457143Y-75061904D01*
X140504762Y-75109523D01*
X140552381Y-75204761D01*
X140552381Y-75442857D01*
X140504762Y-75538095D01*
X140457143Y-75585714D01*
X133552381Y-75966666D02*
X133076190Y-76300000D01*
X133552381Y-76538095D02*
X132552381Y-76538095D01*
X132552381Y-76157142D01*
X132600000Y-76061904D01*
X132647619Y-76014285D01*
X132742857Y-75966666D01*
X132885714Y-75966666D01*
X132980952Y-76014285D01*
X133028571Y-76061904D01*
X133076190Y-76157142D01*
X133076190Y-76538095D01*
X132552381Y-75109523D02*
X132552381Y-75300000D01*
X132600000Y-75395238D01*
X132647619Y-75442857D01*
X132790476Y-75538095D01*
X132980952Y-75585714D01*
X133361905Y-75585714D01*
X133457143Y-75538095D01*
X133504762Y-75490476D01*
X133552381Y-75395238D01*
X133552381Y-75204761D01*
X133504762Y-75109523D01*
X133457143Y-75061904D01*
X133361905Y-75014285D01*
X133123810Y-75014285D01*
X133028571Y-75061904D01*
X132980952Y-75109523D01*
X132933333Y-75204761D01*
X132933333Y-75395238D01*
X132980952Y-75490476D01*
X133028571Y-75538095D01*
X133123810Y-75585714D01*
X126552381Y-75966666D02*
X126076190Y-76300000D01*
X126552381Y-76538095D02*
X125552381Y-76538095D01*
X125552381Y-76157142D01*
X125600000Y-76061904D01*
X125647619Y-76014285D01*
X125742857Y-75966666D01*
X125885714Y-75966666D01*
X125980952Y-76014285D01*
X126028571Y-76061904D01*
X126076190Y-76157142D01*
X126076190Y-76538095D01*
X125552381Y-75633333D02*
X125552381Y-74966666D01*
X126552381Y-75395238D01*
X119552381Y-75966666D02*
X119076190Y-76300000D01*
X119552381Y-76538095D02*
X118552381Y-76538095D01*
X118552381Y-76157142D01*
X118600000Y-76061904D01*
X118647619Y-76014285D01*
X118742857Y-75966666D01*
X118885714Y-75966666D01*
X118980952Y-76014285D01*
X119028571Y-76061904D01*
X119076190Y-76157142D01*
X119076190Y-76538095D01*
X118980952Y-75395238D02*
X118933333Y-75490476D01*
X118885714Y-75538095D01*
X118790476Y-75585714D01*
X118742857Y-75585714D01*
X118647619Y-75538095D01*
X118600000Y-75490476D01*
X118552381Y-75395238D01*
X118552381Y-75204761D01*
X118600000Y-75109523D01*
X118647619Y-75061904D01*
X118742857Y-75014285D01*
X118790476Y-75014285D01*
X118885714Y-75061904D01*
X118933333Y-75109523D01*
X118980952Y-75204761D01*
X118980952Y-75395238D01*
X119028571Y-75490476D01*
X119076190Y-75538095D01*
X119171429Y-75585714D01*
X119361905Y-75585714D01*
X119457143Y-75538095D01*
X119504762Y-75490476D01*
X119552381Y-75395238D01*
X119552381Y-75204761D01*
X119504762Y-75109523D01*
X119457143Y-75061904D01*
X119361905Y-75014285D01*
X119171429Y-75014285D01*
X119076190Y-75061904D01*
X119028571Y-75109523D01*
X118980952Y-75204761D01*
X112552381Y-75966666D02*
X112076190Y-76300000D01*
X112552381Y-76538095D02*
X111552381Y-76538095D01*
X111552381Y-76157142D01*
X111600000Y-76061904D01*
X111647619Y-76014285D01*
X111742857Y-75966666D01*
X111885714Y-75966666D01*
X111980952Y-76014285D01*
X112028571Y-76061904D01*
X112076190Y-76157142D01*
X112076190Y-76538095D01*
X112552381Y-75490476D02*
X112552381Y-75300000D01*
X112504762Y-75204761D01*
X112457143Y-75157142D01*
X112314286Y-75061904D01*
X112123810Y-75014285D01*
X111742857Y-75014285D01*
X111647619Y-75061904D01*
X111600000Y-75109523D01*
X111552381Y-75204761D01*
X111552381Y-75395238D01*
X111600000Y-75490476D01*
X111647619Y-75538095D01*
X111742857Y-75585714D01*
X111980952Y-75585714D01*
X112076190Y-75538095D01*
X112123810Y-75490476D01*
X112171429Y-75395238D01*
X112171429Y-75204761D01*
X112123810Y-75109523D01*
X112076190Y-75061904D01*
X111980952Y-75014285D01*
X105552381Y-76442857D02*
X105076190Y-76776191D01*
X105552381Y-77014286D02*
X104552381Y-77014286D01*
X104552381Y-76633333D01*
X104600000Y-76538095D01*
X104647619Y-76490476D01*
X104742857Y-76442857D01*
X104885714Y-76442857D01*
X104980952Y-76490476D01*
X105028571Y-76538095D01*
X105076190Y-76633333D01*
X105076190Y-77014286D01*
X105552381Y-75490476D02*
X105552381Y-76061905D01*
X105552381Y-75776191D02*
X104552381Y-75776191D01*
X104695238Y-75871429D01*
X104790476Y-75966667D01*
X104838095Y-76061905D01*
X104552381Y-74871429D02*
X104552381Y-74776190D01*
X104600000Y-74680952D01*
X104647619Y-74633333D01*
X104742857Y-74585714D01*
X104933333Y-74538095D01*
X105171429Y-74538095D01*
X105361905Y-74585714D01*
X105457143Y-74633333D01*
X105504762Y-74680952D01*
X105552381Y-74776190D01*
X105552381Y-74871429D01*
X105504762Y-74966667D01*
X105457143Y-75014286D01*
X105361905Y-75061905D01*
X105171429Y-75109524D01*
X104933333Y-75109524D01*
X104742857Y-75061905D01*
X104647619Y-75014286D01*
X104600000Y-74966667D01*
X104552381Y-74871429D01*
X127357143Y-96652381D02*
X127023809Y-96176190D01*
X126785714Y-96652381D02*
X126785714Y-95652381D01*
X127166667Y-95652381D01*
X127261905Y-95700000D01*
X127309524Y-95747619D01*
X127357143Y-95842857D01*
X127357143Y-95985714D01*
X127309524Y-96080952D01*
X127261905Y-96128571D01*
X127166667Y-96176190D01*
X126785714Y-96176190D01*
X128309524Y-96652381D02*
X127738095Y-96652381D01*
X128023809Y-96652381D02*
X128023809Y-95652381D01*
X127928571Y-95795238D01*
X127833333Y-95890476D01*
X127738095Y-95938095D01*
X129261905Y-96652381D02*
X128690476Y-96652381D01*
X128976190Y-96652381D02*
X128976190Y-95652381D01*
X128880952Y-95795238D01*
X128785714Y-95890476D01*
X128690476Y-95938095D01*
X120357143Y-96652381D02*
X120023809Y-96176190D01*
X119785714Y-96652381D02*
X119785714Y-95652381D01*
X120166667Y-95652381D01*
X120261905Y-95700000D01*
X120309524Y-95747619D01*
X120357143Y-95842857D01*
X120357143Y-95985714D01*
X120309524Y-96080952D01*
X120261905Y-96128571D01*
X120166667Y-96176190D01*
X119785714Y-96176190D01*
X121309524Y-96652381D02*
X120738095Y-96652381D01*
X121023809Y-96652381D02*
X121023809Y-95652381D01*
X120928571Y-95795238D01*
X120833333Y-95890476D01*
X120738095Y-95938095D01*
X121690476Y-95747619D02*
X121738095Y-95700000D01*
X121833333Y-95652381D01*
X122071429Y-95652381D01*
X122166667Y-95700000D01*
X122214286Y-95747619D01*
X122261905Y-95842857D01*
X122261905Y-95938095D01*
X122214286Y-96080952D01*
X121642857Y-96652381D01*
X122261905Y-96652381D01*
X113357143Y-96652381D02*
X113023809Y-96176190D01*
X112785714Y-96652381D02*
X112785714Y-95652381D01*
X113166667Y-95652381D01*
X113261905Y-95700000D01*
X113309524Y-95747619D01*
X113357143Y-95842857D01*
X113357143Y-95985714D01*
X113309524Y-96080952D01*
X113261905Y-96128571D01*
X113166667Y-96176190D01*
X112785714Y-96176190D01*
X114309524Y-96652381D02*
X113738095Y-96652381D01*
X114023809Y-96652381D02*
X114023809Y-95652381D01*
X113928571Y-95795238D01*
X113833333Y-95890476D01*
X113738095Y-95938095D01*
X114642857Y-95652381D02*
X115261905Y-95652381D01*
X114928571Y-96033333D01*
X115071429Y-96033333D01*
X115166667Y-96080952D01*
X115214286Y-96128571D01*
X115261905Y-96223810D01*
X115261905Y-96461905D01*
X115214286Y-96557143D01*
X115166667Y-96604762D01*
X115071429Y-96652381D01*
X114785714Y-96652381D01*
X114690476Y-96604762D01*
X114642857Y-96557143D01*
X106357143Y-96652381D02*
X106023809Y-96176190D01*
X105785714Y-96652381D02*
X105785714Y-95652381D01*
X106166667Y-95652381D01*
X106261905Y-95700000D01*
X106309524Y-95747619D01*
X106357143Y-95842857D01*
X106357143Y-95985714D01*
X106309524Y-96080952D01*
X106261905Y-96128571D01*
X106166667Y-96176190D01*
X105785714Y-96176190D01*
X107309524Y-96652381D02*
X106738095Y-96652381D01*
X107023809Y-96652381D02*
X107023809Y-95652381D01*
X106928571Y-95795238D01*
X106833333Y-95890476D01*
X106738095Y-95938095D01*
X108166667Y-95985714D02*
X108166667Y-96652381D01*
X107928571Y-95604762D02*
X107690476Y-96319048D01*
X108309524Y-96319048D01*
X109952381Y-99942857D02*
X109476190Y-100276191D01*
X109952381Y-100514286D02*
X108952381Y-100514286D01*
X108952381Y-100133333D01*
X109000000Y-100038095D01*
X109047619Y-99990476D01*
X109142857Y-99942857D01*
X109285714Y-99942857D01*
X109380952Y-99990476D01*
X109428571Y-100038095D01*
X109476190Y-100133333D01*
X109476190Y-100514286D01*
X109952381Y-98990476D02*
X109952381Y-99561905D01*
X109952381Y-99276191D02*
X108952381Y-99276191D01*
X109095238Y-99371429D01*
X109190476Y-99466667D01*
X109238095Y-99561905D01*
X108952381Y-98085714D02*
X108952381Y-98561905D01*
X109428571Y-98609524D01*
X109380952Y-98561905D01*
X109333333Y-98466667D01*
X109333333Y-98228571D01*
X109380952Y-98133333D01*
X109428571Y-98085714D01*
X109523810Y-98038095D01*
X109761905Y-98038095D01*
X109857143Y-98085714D01*
X109904762Y-98133333D01*
X109952381Y-98228571D01*
X109952381Y-98466667D01*
X109904762Y-98561905D01*
X109857143Y-98609524D01*
X155357143Y-96752381D02*
X155023809Y-96276190D01*
X154785714Y-96752381D02*
X154785714Y-95752381D01*
X155166667Y-95752381D01*
X155261905Y-95800000D01*
X155309524Y-95847619D01*
X155357143Y-95942857D01*
X155357143Y-96085714D01*
X155309524Y-96180952D01*
X155261905Y-96228571D01*
X155166667Y-96276190D01*
X154785714Y-96276190D01*
X156309524Y-96752381D02*
X155738095Y-96752381D01*
X156023809Y-96752381D02*
X156023809Y-95752381D01*
X155928571Y-95895238D01*
X155833333Y-95990476D01*
X155738095Y-96038095D01*
X157166667Y-95752381D02*
X156976190Y-95752381D01*
X156880952Y-95800000D01*
X156833333Y-95847619D01*
X156738095Y-95990476D01*
X156690476Y-96180952D01*
X156690476Y-96561905D01*
X156738095Y-96657143D01*
X156785714Y-96704762D01*
X156880952Y-96752381D01*
X157071429Y-96752381D01*
X157166667Y-96704762D01*
X157214286Y-96657143D01*
X157261905Y-96561905D01*
X157261905Y-96323810D01*
X157214286Y-96228571D01*
X157166667Y-96180952D01*
X157071429Y-96133333D01*
X156880952Y-96133333D01*
X156785714Y-96180952D01*
X156738095Y-96228571D01*
X156690476Y-96323810D01*
X148357143Y-96652381D02*
X148023809Y-96176190D01*
X147785714Y-96652381D02*
X147785714Y-95652381D01*
X148166667Y-95652381D01*
X148261905Y-95700000D01*
X148309524Y-95747619D01*
X148357143Y-95842857D01*
X148357143Y-95985714D01*
X148309524Y-96080952D01*
X148261905Y-96128571D01*
X148166667Y-96176190D01*
X147785714Y-96176190D01*
X149309524Y-96652381D02*
X148738095Y-96652381D01*
X149023809Y-96652381D02*
X149023809Y-95652381D01*
X148928571Y-95795238D01*
X148833333Y-95890476D01*
X148738095Y-95938095D01*
X149642857Y-95652381D02*
X150309524Y-95652381D01*
X149880952Y-96652381D01*
X141357143Y-96652381D02*
X141023809Y-96176190D01*
X140785714Y-96652381D02*
X140785714Y-95652381D01*
X141166667Y-95652381D01*
X141261905Y-95700000D01*
X141309524Y-95747619D01*
X141357143Y-95842857D01*
X141357143Y-95985714D01*
X141309524Y-96080952D01*
X141261905Y-96128571D01*
X141166667Y-96176190D01*
X140785714Y-96176190D01*
X142309524Y-96652381D02*
X141738095Y-96652381D01*
X142023809Y-96652381D02*
X142023809Y-95652381D01*
X141928571Y-95795238D01*
X141833333Y-95890476D01*
X141738095Y-95938095D01*
X142880952Y-96080952D02*
X142785714Y-96033333D01*
X142738095Y-95985714D01*
X142690476Y-95890476D01*
X142690476Y-95842857D01*
X142738095Y-95747619D01*
X142785714Y-95700000D01*
X142880952Y-95652381D01*
X143071429Y-95652381D01*
X143166667Y-95700000D01*
X143214286Y-95747619D01*
X143261905Y-95842857D01*
X143261905Y-95890476D01*
X143214286Y-95985714D01*
X143166667Y-96033333D01*
X143071429Y-96080952D01*
X142880952Y-96080952D01*
X142785714Y-96128571D01*
X142738095Y-96176190D01*
X142690476Y-96271429D01*
X142690476Y-96461905D01*
X142738095Y-96557143D01*
X142785714Y-96604762D01*
X142880952Y-96652381D01*
X143071429Y-96652381D01*
X143166667Y-96604762D01*
X143214286Y-96557143D01*
X143261905Y-96461905D01*
X143261905Y-96271429D01*
X143214286Y-96176190D01*
X143166667Y-96128571D01*
X143071429Y-96080952D01*
X134357143Y-96652381D02*
X134023809Y-96176190D01*
X133785714Y-96652381D02*
X133785714Y-95652381D01*
X134166667Y-95652381D01*
X134261905Y-95700000D01*
X134309524Y-95747619D01*
X134357143Y-95842857D01*
X134357143Y-95985714D01*
X134309524Y-96080952D01*
X134261905Y-96128571D01*
X134166667Y-96176190D01*
X133785714Y-96176190D01*
X135309524Y-96652381D02*
X134738095Y-96652381D01*
X135023809Y-96652381D02*
X135023809Y-95652381D01*
X134928571Y-95795238D01*
X134833333Y-95890476D01*
X134738095Y-95938095D01*
X135785714Y-96652381D02*
X135976190Y-96652381D01*
X136071429Y-96604762D01*
X136119048Y-96557143D01*
X136214286Y-96414286D01*
X136261905Y-96223810D01*
X136261905Y-95842857D01*
X136214286Y-95747619D01*
X136166667Y-95700000D01*
X136071429Y-95652381D01*
X135880952Y-95652381D01*
X135785714Y-95700000D01*
X135738095Y-95747619D01*
X135690476Y-95842857D01*
X135690476Y-96080952D01*
X135738095Y-96176190D01*
X135785714Y-96223810D01*
X135880952Y-96271429D01*
X136071429Y-96271429D01*
X136166667Y-96223810D01*
X136214286Y-96176190D01*
X136261905Y-96080952D01*
X137952381Y-99442857D02*
X137476190Y-99776191D01*
X137952381Y-100014286D02*
X136952381Y-100014286D01*
X136952381Y-99633333D01*
X137000000Y-99538095D01*
X137047619Y-99490476D01*
X137142857Y-99442857D01*
X137285714Y-99442857D01*
X137380952Y-99490476D01*
X137428571Y-99538095D01*
X137476190Y-99633333D01*
X137476190Y-100014286D01*
X137047619Y-99061905D02*
X137000000Y-99014286D01*
X136952381Y-98919048D01*
X136952381Y-98680952D01*
X137000000Y-98585714D01*
X137047619Y-98538095D01*
X137142857Y-98490476D01*
X137238095Y-98490476D01*
X137380952Y-98538095D01*
X137952381Y-99109524D01*
X137952381Y-98490476D01*
X136952381Y-97871429D02*
X136952381Y-97776190D01*
X137000000Y-97680952D01*
X137047619Y-97633333D01*
X137142857Y-97585714D01*
X137333333Y-97538095D01*
X137571429Y-97538095D01*
X137761905Y-97585714D01*
X137857143Y-97633333D01*
X137904762Y-97680952D01*
X137952381Y-97776190D01*
X137952381Y-97871429D01*
X137904762Y-97966667D01*
X137857143Y-98014286D01*
X137761905Y-98061905D01*
X137571429Y-98109524D01*
X137333333Y-98109524D01*
X137142857Y-98061905D01*
X137047619Y-98014286D01*
X137000000Y-97966667D01*
X136952381Y-97871429D01*
X161957143Y-139352381D02*
X161623809Y-138876190D01*
X161385714Y-139352381D02*
X161385714Y-138352381D01*
X161766667Y-138352381D01*
X161861905Y-138400000D01*
X161909524Y-138447619D01*
X161957143Y-138542857D01*
X161957143Y-138685714D01*
X161909524Y-138780952D01*
X161861905Y-138828571D01*
X161766667Y-138876190D01*
X161385714Y-138876190D01*
X162338095Y-138447619D02*
X162385714Y-138400000D01*
X162480952Y-138352381D01*
X162719048Y-138352381D01*
X162814286Y-138400000D01*
X162861905Y-138447619D01*
X162909524Y-138542857D01*
X162909524Y-138638095D01*
X162861905Y-138780952D01*
X162290476Y-139352381D01*
X162909524Y-139352381D01*
X163861905Y-139352381D02*
X163290476Y-139352381D01*
X163576190Y-139352381D02*
X163576190Y-138352381D01*
X163480952Y-138495238D01*
X163385714Y-138590476D01*
X163290476Y-138638095D01*
X130057143Y-115052381D02*
X129723809Y-114576190D01*
X129485714Y-115052381D02*
X129485714Y-114052381D01*
X129866667Y-114052381D01*
X129961905Y-114100000D01*
X130009524Y-114147619D01*
X130057143Y-114242857D01*
X130057143Y-114385714D01*
X130009524Y-114480952D01*
X129961905Y-114528571D01*
X129866667Y-114576190D01*
X129485714Y-114576190D01*
X130438095Y-114147619D02*
X130485714Y-114100000D01*
X130580952Y-114052381D01*
X130819048Y-114052381D01*
X130914286Y-114100000D01*
X130961905Y-114147619D01*
X131009524Y-114242857D01*
X131009524Y-114338095D01*
X130961905Y-114480952D01*
X130390476Y-115052381D01*
X131009524Y-115052381D01*
X131390476Y-114147619D02*
X131438095Y-114100000D01*
X131533333Y-114052381D01*
X131771429Y-114052381D01*
X131866667Y-114100000D01*
X131914286Y-114147619D01*
X131961905Y-114242857D01*
X131961905Y-114338095D01*
X131914286Y-114480952D01*
X131342857Y-115052381D01*
X131961905Y-115052381D01*
X130057143Y-119152381D02*
X129723809Y-118676190D01*
X129485714Y-119152381D02*
X129485714Y-118152381D01*
X129866667Y-118152381D01*
X129961905Y-118200000D01*
X130009524Y-118247619D01*
X130057143Y-118342857D01*
X130057143Y-118485714D01*
X130009524Y-118580952D01*
X129961905Y-118628571D01*
X129866667Y-118676190D01*
X129485714Y-118676190D01*
X130438095Y-118247619D02*
X130485714Y-118200000D01*
X130580952Y-118152381D01*
X130819048Y-118152381D01*
X130914286Y-118200000D01*
X130961905Y-118247619D01*
X131009524Y-118342857D01*
X131009524Y-118438095D01*
X130961905Y-118580952D01*
X130390476Y-119152381D01*
X131009524Y-119152381D01*
X131342857Y-118152381D02*
X131961905Y-118152381D01*
X131628571Y-118533333D01*
X131771429Y-118533333D01*
X131866667Y-118580952D01*
X131914286Y-118628571D01*
X131961905Y-118723810D01*
X131961905Y-118961905D01*
X131914286Y-119057143D01*
X131866667Y-119104762D01*
X131771429Y-119152381D01*
X131485714Y-119152381D01*
X131390476Y-119104762D01*
X131342857Y-119057143D01*
X167066667Y-138604762D02*
X167209524Y-138652381D01*
X167447620Y-138652381D01*
X167542858Y-138604762D01*
X167590477Y-138557143D01*
X167638096Y-138461905D01*
X167638096Y-138366667D01*
X167590477Y-138271429D01*
X167542858Y-138223810D01*
X167447620Y-138176190D01*
X167257143Y-138128571D01*
X167161905Y-138080952D01*
X167114286Y-138033333D01*
X167066667Y-137938095D01*
X167066667Y-137842857D01*
X167114286Y-137747619D01*
X167161905Y-137700000D01*
X167257143Y-137652381D01*
X167495239Y-137652381D01*
X167638096Y-137700000D01*
X167971429Y-137652381D02*
X168209524Y-138652381D01*
X168400001Y-137938095D01*
X168590477Y-138652381D01*
X168828572Y-137652381D01*
X169733334Y-138652381D02*
X169161905Y-138652381D01*
X169447619Y-138652381D02*
X169447619Y-137652381D01*
X169352381Y-137795238D01*
X169257143Y-137890476D01*
X169161905Y-137938095D01*
X125704762Y-90033333D02*
X125752381Y-89890476D01*
X125752381Y-89652380D01*
X125704762Y-89557142D01*
X125657143Y-89509523D01*
X125561905Y-89461904D01*
X125466667Y-89461904D01*
X125371429Y-89509523D01*
X125323810Y-89557142D01*
X125276190Y-89652380D01*
X125228571Y-89842857D01*
X125180952Y-89938095D01*
X125133333Y-89985714D01*
X125038095Y-90033333D01*
X124942857Y-90033333D01*
X124847619Y-89985714D01*
X124800000Y-89938095D01*
X124752381Y-89842857D01*
X124752381Y-89604761D01*
X124800000Y-89461904D01*
X124752381Y-89128571D02*
X125752381Y-88890476D01*
X125038095Y-88699999D01*
X125752381Y-88509523D01*
X124752381Y-88271428D01*
X124847619Y-87938095D02*
X124800000Y-87890476D01*
X124752381Y-87795238D01*
X124752381Y-87557142D01*
X124800000Y-87461904D01*
X124847619Y-87414285D01*
X124942857Y-87366666D01*
X125038095Y-87366666D01*
X125180952Y-87414285D01*
X125752381Y-87985714D01*
X125752381Y-87366666D01*
X118704762Y-90033333D02*
X118752381Y-89890476D01*
X118752381Y-89652380D01*
X118704762Y-89557142D01*
X118657143Y-89509523D01*
X118561905Y-89461904D01*
X118466667Y-89461904D01*
X118371429Y-89509523D01*
X118323810Y-89557142D01*
X118276190Y-89652380D01*
X118228571Y-89842857D01*
X118180952Y-89938095D01*
X118133333Y-89985714D01*
X118038095Y-90033333D01*
X117942857Y-90033333D01*
X117847619Y-89985714D01*
X117800000Y-89938095D01*
X117752381Y-89842857D01*
X117752381Y-89604761D01*
X117800000Y-89461904D01*
X117752381Y-89128571D02*
X118752381Y-88890476D01*
X118038095Y-88699999D01*
X118752381Y-88509523D01*
X117752381Y-88271428D01*
X117752381Y-87985714D02*
X117752381Y-87366666D01*
X118133333Y-87700000D01*
X118133333Y-87557142D01*
X118180952Y-87461904D01*
X118228571Y-87414285D01*
X118323810Y-87366666D01*
X118561905Y-87366666D01*
X118657143Y-87414285D01*
X118704762Y-87461904D01*
X118752381Y-87557142D01*
X118752381Y-87842857D01*
X118704762Y-87938095D01*
X118657143Y-87985714D01*
X111704762Y-90033333D02*
X111752381Y-89890476D01*
X111752381Y-89652380D01*
X111704762Y-89557142D01*
X111657143Y-89509523D01*
X111561905Y-89461904D01*
X111466667Y-89461904D01*
X111371429Y-89509523D01*
X111323810Y-89557142D01*
X111276190Y-89652380D01*
X111228571Y-89842857D01*
X111180952Y-89938095D01*
X111133333Y-89985714D01*
X111038095Y-90033333D01*
X110942857Y-90033333D01*
X110847619Y-89985714D01*
X110800000Y-89938095D01*
X110752381Y-89842857D01*
X110752381Y-89604761D01*
X110800000Y-89461904D01*
X110752381Y-89128571D02*
X111752381Y-88890476D01*
X111038095Y-88699999D01*
X111752381Y-88509523D01*
X110752381Y-88271428D01*
X111085714Y-87461904D02*
X111752381Y-87461904D01*
X110704762Y-87700000D02*
X111419048Y-87938095D01*
X111419048Y-87319047D01*
X104704762Y-90033333D02*
X104752381Y-89890476D01*
X104752381Y-89652380D01*
X104704762Y-89557142D01*
X104657143Y-89509523D01*
X104561905Y-89461904D01*
X104466667Y-89461904D01*
X104371429Y-89509523D01*
X104323810Y-89557142D01*
X104276190Y-89652380D01*
X104228571Y-89842857D01*
X104180952Y-89938095D01*
X104133333Y-89985714D01*
X104038095Y-90033333D01*
X103942857Y-90033333D01*
X103847619Y-89985714D01*
X103800000Y-89938095D01*
X103752381Y-89842857D01*
X103752381Y-89604761D01*
X103800000Y-89461904D01*
X103752381Y-89128571D02*
X104752381Y-88890476D01*
X104038095Y-88699999D01*
X104752381Y-88509523D01*
X103752381Y-88271428D01*
X103752381Y-87414285D02*
X103752381Y-87890476D01*
X104228571Y-87938095D01*
X104180952Y-87890476D01*
X104133333Y-87795238D01*
X104133333Y-87557142D01*
X104180952Y-87461904D01*
X104228571Y-87414285D01*
X104323810Y-87366666D01*
X104561905Y-87366666D01*
X104657143Y-87414285D01*
X104704762Y-87461904D01*
X104752381Y-87557142D01*
X104752381Y-87795238D01*
X104704762Y-87890476D01*
X104657143Y-87938095D01*
X153704762Y-90033333D02*
X153752381Y-89890476D01*
X153752381Y-89652380D01*
X153704762Y-89557142D01*
X153657143Y-89509523D01*
X153561905Y-89461904D01*
X153466667Y-89461904D01*
X153371429Y-89509523D01*
X153323810Y-89557142D01*
X153276190Y-89652380D01*
X153228571Y-89842857D01*
X153180952Y-89938095D01*
X153133333Y-89985714D01*
X153038095Y-90033333D01*
X152942857Y-90033333D01*
X152847619Y-89985714D01*
X152800000Y-89938095D01*
X152752381Y-89842857D01*
X152752381Y-89604761D01*
X152800000Y-89461904D01*
X152752381Y-89128571D02*
X153752381Y-88890476D01*
X153038095Y-88699999D01*
X153752381Y-88509523D01*
X152752381Y-88271428D01*
X152752381Y-87461904D02*
X152752381Y-87652381D01*
X152800000Y-87747619D01*
X152847619Y-87795238D01*
X152990476Y-87890476D01*
X153180952Y-87938095D01*
X153561905Y-87938095D01*
X153657143Y-87890476D01*
X153704762Y-87842857D01*
X153752381Y-87747619D01*
X153752381Y-87557142D01*
X153704762Y-87461904D01*
X153657143Y-87414285D01*
X153561905Y-87366666D01*
X153323810Y-87366666D01*
X153228571Y-87414285D01*
X153180952Y-87461904D01*
X153133333Y-87557142D01*
X153133333Y-87747619D01*
X153180952Y-87842857D01*
X153228571Y-87890476D01*
X153323810Y-87938095D01*
X146704762Y-90033333D02*
X146752381Y-89890476D01*
X146752381Y-89652380D01*
X146704762Y-89557142D01*
X146657143Y-89509523D01*
X146561905Y-89461904D01*
X146466667Y-89461904D01*
X146371429Y-89509523D01*
X146323810Y-89557142D01*
X146276190Y-89652380D01*
X146228571Y-89842857D01*
X146180952Y-89938095D01*
X146133333Y-89985714D01*
X146038095Y-90033333D01*
X145942857Y-90033333D01*
X145847619Y-89985714D01*
X145800000Y-89938095D01*
X145752381Y-89842857D01*
X145752381Y-89604761D01*
X145800000Y-89461904D01*
X145752381Y-89128571D02*
X146752381Y-88890476D01*
X146038095Y-88699999D01*
X146752381Y-88509523D01*
X145752381Y-88271428D01*
X145752381Y-87985714D02*
X145752381Y-87319047D01*
X146752381Y-87747619D01*
X139704762Y-90033333D02*
X139752381Y-89890476D01*
X139752381Y-89652380D01*
X139704762Y-89557142D01*
X139657143Y-89509523D01*
X139561905Y-89461904D01*
X139466667Y-89461904D01*
X139371429Y-89509523D01*
X139323810Y-89557142D01*
X139276190Y-89652380D01*
X139228571Y-89842857D01*
X139180952Y-89938095D01*
X139133333Y-89985714D01*
X139038095Y-90033333D01*
X138942857Y-90033333D01*
X138847619Y-89985714D01*
X138800000Y-89938095D01*
X138752381Y-89842857D01*
X138752381Y-89604761D01*
X138800000Y-89461904D01*
X138752381Y-89128571D02*
X139752381Y-88890476D01*
X139038095Y-88699999D01*
X139752381Y-88509523D01*
X138752381Y-88271428D01*
X139180952Y-87747619D02*
X139133333Y-87842857D01*
X139085714Y-87890476D01*
X138990476Y-87938095D01*
X138942857Y-87938095D01*
X138847619Y-87890476D01*
X138800000Y-87842857D01*
X138752381Y-87747619D01*
X138752381Y-87557142D01*
X138800000Y-87461904D01*
X138847619Y-87414285D01*
X138942857Y-87366666D01*
X138990476Y-87366666D01*
X139085714Y-87414285D01*
X139133333Y-87461904D01*
X139180952Y-87557142D01*
X139180952Y-87747619D01*
X139228571Y-87842857D01*
X139276190Y-87890476D01*
X139371429Y-87938095D01*
X139561905Y-87938095D01*
X139657143Y-87890476D01*
X139704762Y-87842857D01*
X139752381Y-87747619D01*
X139752381Y-87557142D01*
X139704762Y-87461904D01*
X139657143Y-87414285D01*
X139561905Y-87366666D01*
X139371429Y-87366666D01*
X139276190Y-87414285D01*
X139228571Y-87461904D01*
X139180952Y-87557142D01*
X132704762Y-90033333D02*
X132752381Y-89890476D01*
X132752381Y-89652380D01*
X132704762Y-89557142D01*
X132657143Y-89509523D01*
X132561905Y-89461904D01*
X132466667Y-89461904D01*
X132371429Y-89509523D01*
X132323810Y-89557142D01*
X132276190Y-89652380D01*
X132228571Y-89842857D01*
X132180952Y-89938095D01*
X132133333Y-89985714D01*
X132038095Y-90033333D01*
X131942857Y-90033333D01*
X131847619Y-89985714D01*
X131800000Y-89938095D01*
X131752381Y-89842857D01*
X131752381Y-89604761D01*
X131800000Y-89461904D01*
X131752381Y-89128571D02*
X132752381Y-88890476D01*
X132038095Y-88699999D01*
X132752381Y-88509523D01*
X131752381Y-88271428D01*
X132752381Y-87842857D02*
X132752381Y-87652381D01*
X132704762Y-87557142D01*
X132657143Y-87509523D01*
X132514286Y-87414285D01*
X132323810Y-87366666D01*
X131942857Y-87366666D01*
X131847619Y-87414285D01*
X131800000Y-87461904D01*
X131752381Y-87557142D01*
X131752381Y-87747619D01*
X131800000Y-87842857D01*
X131847619Y-87890476D01*
X131942857Y-87938095D01*
X132180952Y-87938095D01*
X132276190Y-87890476D01*
X132323810Y-87842857D01*
X132371429Y-87747619D01*
X132371429Y-87557142D01*
X132323810Y-87461904D01*
X132276190Y-87414285D01*
X132180952Y-87366666D01*
X167052381Y-125061905D02*
X167861905Y-125061905D01*
X167957143Y-125014286D01*
X168004762Y-124966667D01*
X168052381Y-124871429D01*
X168052381Y-124680952D01*
X168004762Y-124585714D01*
X167957143Y-124538095D01*
X167861905Y-124490476D01*
X167052381Y-124490476D01*
X168052381Y-123490476D02*
X168052381Y-124061905D01*
X168052381Y-123776191D02*
X167052381Y-123776191D01*
X167195238Y-123871429D01*
X167290476Y-123966667D01*
X167338095Y-124061905D01*
D14*
X100593167Y-59717333D02*
X101312833Y-59717333D01*
X101397500Y-59675000D01*
X101439833Y-59632667D01*
X101482167Y-59548000D01*
X101482167Y-59378667D01*
X101439833Y-59294000D01*
X101397500Y-59251667D01*
X101312833Y-59209333D01*
X100593167Y-59209333D01*
X100677833Y-58828334D02*
X100635500Y-58786000D01*
X100593167Y-58701334D01*
X100593167Y-58489667D01*
X100635500Y-58405000D01*
X100677833Y-58362667D01*
X100762500Y-58320334D01*
X100847167Y-58320334D01*
X100974167Y-58362667D01*
X101482167Y-58870667D01*
X101482167Y-58320334D01*
D13*
X151652381Y-104561905D02*
X152461905Y-104561905D01*
X152557143Y-104514286D01*
X152604762Y-104466667D01*
X152652381Y-104371429D01*
X152652381Y-104180952D01*
X152604762Y-104085714D01*
X152557143Y-104038095D01*
X152461905Y-103990476D01*
X151652381Y-103990476D01*
X151652381Y-103609524D02*
X151652381Y-102990476D01*
X152033333Y-103323810D01*
X152033333Y-103180952D01*
X152080952Y-103085714D01*
X152128571Y-103038095D01*
X152223810Y-102990476D01*
X152461905Y-102990476D01*
X152557143Y-103038095D01*
X152604762Y-103085714D01*
X152652381Y-103180952D01*
X152652381Y-103466667D01*
X152604762Y-103561905D01*
X152557143Y-103609524D01*
X146923809Y-135456190D02*
X146923809Y-135932381D01*
X146590476Y-134932381D02*
X146923809Y-135456190D01*
X147257143Y-134932381D01*
X148114286Y-135932381D02*
X147542857Y-135932381D01*
X147828571Y-135932381D02*
X147828571Y-134932381D01*
X147733333Y-135075238D01*
X147638095Y-135170476D01*
X147542857Y-135218095D01*
M02*
