G04 #@! TF.FileFunction,Other,Fab,Top*
%FSLAX46Y46*%
G04 Gerber Fmt 4.6, Leading zero omitted, Abs format (unit mm)*
G04 Created by KiCad (PCBNEW 4.0.4-stable) date 11/18/16 12:36:54*
%MOMM*%
%LPD*%
G01*
G04 APERTURE LIST*
%ADD10C,0.100000*%
%ADD11C,0.150000*%
%ADD12C,0.152400*%
G04 APERTURE END LIST*
D10*
D11*
X139800000Y-124100000D02*
X139800000Y-124900000D01*
X138200000Y-124100000D02*
X139800000Y-124100000D01*
X138200000Y-124900000D02*
X138200000Y-124100000D01*
X139800000Y-124900000D02*
X138200000Y-124900000D01*
X135200000Y-130900000D02*
X135200000Y-130100000D01*
X136800000Y-130900000D02*
X135200000Y-130900000D01*
X136800000Y-130100000D02*
X136800000Y-130900000D01*
X135200000Y-130100000D02*
X136800000Y-130100000D01*
X154300000Y-126000000D02*
X155100000Y-126000000D01*
X154300000Y-127600000D02*
X154300000Y-126000000D01*
X155100000Y-127600000D02*
X154300000Y-127600000D01*
X155100000Y-126000000D02*
X155100000Y-127600000D01*
X158900000Y-119100000D02*
X159700000Y-119100000D01*
X158900000Y-120700000D02*
X158900000Y-119100000D01*
X159700000Y-120700000D02*
X158900000Y-120700000D01*
X159700000Y-119100000D02*
X159700000Y-120700000D01*
X159700000Y-130000000D02*
X158900000Y-130000000D01*
X159700000Y-128400000D02*
X159700000Y-130000000D01*
X158900000Y-128400000D02*
X159700000Y-128400000D01*
X158900000Y-130000000D02*
X158900000Y-128400000D01*
X154600000Y-105600000D02*
X155400000Y-105600000D01*
X154600000Y-107200000D02*
X154600000Y-105600000D01*
X155400000Y-107200000D02*
X154600000Y-107200000D01*
X155400000Y-105600000D02*
X155400000Y-107200000D01*
X155800000Y-80600000D02*
X156200000Y-80600000D01*
X156000000Y-80500000D02*
X155800000Y-80200000D01*
X156200000Y-80200000D02*
X156000000Y-80500000D01*
X155800000Y-80200000D02*
X156200000Y-80200000D01*
X156400000Y-79500000D02*
X156400000Y-81100000D01*
X155600000Y-79500000D02*
X156400000Y-79500000D01*
X155600000Y-81100000D02*
X155600000Y-79500000D01*
X156400000Y-81100000D02*
X155600000Y-81100000D01*
X148800000Y-80600000D02*
X149200000Y-80600000D01*
X149000000Y-80500000D02*
X148800000Y-80200000D01*
X149200000Y-80200000D02*
X149000000Y-80500000D01*
X148800000Y-80200000D02*
X149200000Y-80200000D01*
X149400000Y-79500000D02*
X149400000Y-81100000D01*
X148600000Y-79500000D02*
X149400000Y-79500000D01*
X148600000Y-81100000D02*
X148600000Y-79500000D01*
X149400000Y-81100000D02*
X148600000Y-81100000D01*
X141800000Y-80600000D02*
X142200000Y-80600000D01*
X142000000Y-80500000D02*
X141800000Y-80200000D01*
X142200000Y-80200000D02*
X142000000Y-80500000D01*
X141800000Y-80200000D02*
X142200000Y-80200000D01*
X142400000Y-79500000D02*
X142400000Y-81100000D01*
X141600000Y-79500000D02*
X142400000Y-79500000D01*
X141600000Y-81100000D02*
X141600000Y-79500000D01*
X142400000Y-81100000D02*
X141600000Y-81100000D01*
X134800000Y-80600000D02*
X135200000Y-80600000D01*
X135000000Y-80500000D02*
X134800000Y-80200000D01*
X135200000Y-80200000D02*
X135000000Y-80500000D01*
X134800000Y-80200000D02*
X135200000Y-80200000D01*
X135400000Y-79500000D02*
X135400000Y-81100000D01*
X134600000Y-79500000D02*
X135400000Y-79500000D01*
X134600000Y-81100000D02*
X134600000Y-79500000D01*
X135400000Y-81100000D02*
X134600000Y-81100000D01*
X127800000Y-80600000D02*
X128200000Y-80600000D01*
X128000000Y-80500000D02*
X127800000Y-80200000D01*
X128200000Y-80200000D02*
X128000000Y-80500000D01*
X127800000Y-80200000D02*
X128200000Y-80200000D01*
X128400000Y-79500000D02*
X128400000Y-81100000D01*
X127600000Y-79500000D02*
X128400000Y-79500000D01*
X127600000Y-81100000D02*
X127600000Y-79500000D01*
X128400000Y-81100000D02*
X127600000Y-81100000D01*
X120800000Y-80600000D02*
X121200000Y-80600000D01*
X121000000Y-80500000D02*
X120800000Y-80200000D01*
X121200000Y-80200000D02*
X121000000Y-80500000D01*
X120800000Y-80200000D02*
X121200000Y-80200000D01*
X121400000Y-79500000D02*
X121400000Y-81100000D01*
X120600000Y-79500000D02*
X121400000Y-79500000D01*
X120600000Y-81100000D02*
X120600000Y-79500000D01*
X121400000Y-81100000D02*
X120600000Y-81100000D01*
X113800000Y-80600000D02*
X114200000Y-80600000D01*
X114000000Y-80500000D02*
X113800000Y-80200000D01*
X114200000Y-80200000D02*
X114000000Y-80500000D01*
X113800000Y-80200000D02*
X114200000Y-80200000D01*
X114400000Y-79500000D02*
X114400000Y-81100000D01*
X113600000Y-79500000D02*
X114400000Y-79500000D01*
X113600000Y-81100000D02*
X113600000Y-79500000D01*
X114400000Y-81100000D02*
X113600000Y-81100000D01*
X106800000Y-80600000D02*
X107200000Y-80600000D01*
X107000000Y-80500000D02*
X106800000Y-80200000D01*
X107200000Y-80200000D02*
X107000000Y-80500000D01*
X106800000Y-80200000D02*
X107200000Y-80200000D01*
X107400000Y-79500000D02*
X107400000Y-81100000D01*
X106600000Y-79500000D02*
X107400000Y-79500000D01*
X106600000Y-81100000D02*
X106600000Y-79500000D01*
X107400000Y-81100000D02*
X106600000Y-81100000D01*
X136200000Y-118600000D02*
X136200000Y-112600000D01*
X136200000Y-112600000D02*
X143200000Y-112600000D01*
X143200000Y-112600000D02*
X143200000Y-119600000D01*
X143200000Y-119600000D02*
X137200000Y-119600000D01*
X137200000Y-119600000D02*
X136200000Y-118600000D01*
X151150000Y-102850000D02*
X151150000Y-105750000D01*
X151150000Y-105750000D02*
X141250000Y-105750000D01*
X141250000Y-105750000D02*
X141250000Y-101850000D01*
X141250000Y-101850000D02*
X150150000Y-101850000D01*
X150150000Y-101850000D02*
X151150000Y-102850000D01*
X127230953Y-69332381D02*
X126754762Y-69332381D01*
X126754762Y-68332381D01*
X127421429Y-68332381D02*
X127992858Y-68332381D01*
X127707143Y-69332381D02*
X127707143Y-68332381D01*
X128897620Y-69237143D02*
X128850001Y-69284762D01*
X128707144Y-69332381D01*
X128611906Y-69332381D01*
X128469048Y-69284762D01*
X128373810Y-69189524D01*
X128326191Y-69094286D01*
X128278572Y-68903810D01*
X128278572Y-68760952D01*
X128326191Y-68570476D01*
X128373810Y-68475238D01*
X128469048Y-68380000D01*
X128611906Y-68332381D01*
X128707144Y-68332381D01*
X128850001Y-68380000D01*
X128897620Y-68427619D01*
X129326191Y-68951429D02*
X130088096Y-68951429D01*
X131040477Y-68332381D02*
X130564286Y-68332381D01*
X130516667Y-68808571D01*
X130564286Y-68760952D01*
X130659524Y-68713333D01*
X130897620Y-68713333D01*
X130992858Y-68760952D01*
X131040477Y-68808571D01*
X131088096Y-68903810D01*
X131088096Y-69141905D01*
X131040477Y-69237143D01*
X130992858Y-69284762D01*
X130897620Y-69332381D01*
X130659524Y-69332381D01*
X130564286Y-69284762D01*
X130516667Y-69237143D01*
X131421429Y-68332381D02*
X132088096Y-68332381D01*
X131659524Y-69332381D01*
X132421429Y-68427619D02*
X132469048Y-68380000D01*
X132564286Y-68332381D01*
X132802382Y-68332381D01*
X132897620Y-68380000D01*
X132945239Y-68427619D01*
X132992858Y-68522857D01*
X132992858Y-68618095D01*
X132945239Y-68760952D01*
X132373810Y-69332381D01*
X132992858Y-69332381D01*
X133326191Y-68332381D02*
X133945239Y-68332381D01*
X133611905Y-68713333D01*
X133754763Y-68713333D01*
X133850001Y-68760952D01*
X133897620Y-68808571D01*
X133945239Y-68903810D01*
X133945239Y-69141905D01*
X133897620Y-69237143D01*
X133850001Y-69284762D01*
X133754763Y-69332381D01*
X133469048Y-69332381D01*
X133373810Y-69284762D01*
X133326191Y-69237143D01*
X134373810Y-69332381D02*
X134373810Y-68332381D01*
X134373810Y-68808571D02*
X134945239Y-68808571D01*
X134945239Y-69332381D02*
X134945239Y-68332381D01*
X135992858Y-69332381D02*
X135659524Y-68856190D01*
X135421429Y-69332381D02*
X135421429Y-68332381D01*
X135802382Y-68332381D01*
X135897620Y-68380000D01*
X135945239Y-68427619D01*
X135992858Y-68522857D01*
X135992858Y-68665714D01*
X135945239Y-68760952D01*
X135897620Y-68808571D01*
X135802382Y-68856190D01*
X135421429Y-68856190D01*
X136252381Y-125542857D02*
X136252381Y-125447618D01*
X136300000Y-125352380D01*
X136347619Y-125304761D01*
X136442857Y-125257142D01*
X136633333Y-125209523D01*
X136871429Y-125209523D01*
X137061905Y-125257142D01*
X137157143Y-125304761D01*
X137204762Y-125352380D01*
X137252381Y-125447618D01*
X137252381Y-125542857D01*
X137204762Y-125638095D01*
X137157143Y-125685714D01*
X137061905Y-125733333D01*
X136871429Y-125780952D01*
X136633333Y-125780952D01*
X136442857Y-125733333D01*
X136347619Y-125685714D01*
X136300000Y-125638095D01*
X136252381Y-125542857D01*
X137157143Y-124780952D02*
X137204762Y-124733333D01*
X137252381Y-124780952D01*
X137204762Y-124828571D01*
X137157143Y-124780952D01*
X137252381Y-124780952D01*
X137252381Y-123780952D02*
X137252381Y-124352381D01*
X137252381Y-124066667D02*
X136252381Y-124066667D01*
X136395238Y-124161905D01*
X136490476Y-124257143D01*
X136538095Y-124352381D01*
X136585714Y-122923809D02*
X137252381Y-122923809D01*
X136585714Y-123352381D02*
X137109524Y-123352381D01*
X137204762Y-123304762D01*
X137252381Y-123209524D01*
X137252381Y-123066666D01*
X137204762Y-122971428D01*
X137157143Y-122923809D01*
X136728571Y-122114285D02*
X136728571Y-122447619D01*
X137252381Y-122447619D02*
X136252381Y-122447619D01*
X136252381Y-121971428D01*
X134357143Y-131947619D02*
X134404762Y-131900000D01*
X134500000Y-131852381D01*
X134738096Y-131852381D01*
X134833334Y-131900000D01*
X134880953Y-131947619D01*
X134928572Y-132042857D01*
X134928572Y-132138095D01*
X134880953Y-132280952D01*
X134309524Y-132852381D01*
X134928572Y-132852381D01*
X135309524Y-131947619D02*
X135357143Y-131900000D01*
X135452381Y-131852381D01*
X135690477Y-131852381D01*
X135785715Y-131900000D01*
X135833334Y-131947619D01*
X135880953Y-132042857D01*
X135880953Y-132138095D01*
X135833334Y-132280952D01*
X135261905Y-132852381D01*
X135880953Y-132852381D01*
X136309524Y-132185714D02*
X136309524Y-133185714D01*
X136309524Y-132233333D02*
X136404762Y-132185714D01*
X136595239Y-132185714D01*
X136690477Y-132233333D01*
X136738096Y-132280952D01*
X136785715Y-132376190D01*
X136785715Y-132661905D01*
X136738096Y-132757143D01*
X136690477Y-132804762D01*
X136595239Y-132852381D01*
X136404762Y-132852381D01*
X136309524Y-132804762D01*
X137547620Y-132328571D02*
X137214286Y-132328571D01*
X137214286Y-132852381D02*
X137214286Y-131852381D01*
X137690477Y-131852381D01*
X152347619Y-128442857D02*
X152300000Y-128395238D01*
X152252381Y-128300000D01*
X152252381Y-128061904D01*
X152300000Y-127966666D01*
X152347619Y-127919047D01*
X152442857Y-127871428D01*
X152538095Y-127871428D01*
X152680952Y-127919047D01*
X153252381Y-128490476D01*
X153252381Y-127871428D01*
X152347619Y-127490476D02*
X152300000Y-127442857D01*
X152252381Y-127347619D01*
X152252381Y-127109523D01*
X152300000Y-127014285D01*
X152347619Y-126966666D01*
X152442857Y-126919047D01*
X152538095Y-126919047D01*
X152680952Y-126966666D01*
X153252381Y-127538095D01*
X153252381Y-126919047D01*
X152585714Y-126490476D02*
X153585714Y-126490476D01*
X152633333Y-126490476D02*
X152585714Y-126395238D01*
X152585714Y-126204761D01*
X152633333Y-126109523D01*
X152680952Y-126061904D01*
X152776190Y-126014285D01*
X153061905Y-126014285D01*
X153157143Y-126061904D01*
X153204762Y-126109523D01*
X153252381Y-126204761D01*
X153252381Y-126395238D01*
X153204762Y-126490476D01*
X152728571Y-125252380D02*
X152728571Y-125585714D01*
X153252381Y-125585714D02*
X152252381Y-125585714D01*
X152252381Y-125109523D01*
X156952381Y-121319048D02*
X156952381Y-121223809D01*
X157000000Y-121128571D01*
X157047619Y-121080952D01*
X157142857Y-121033333D01*
X157333333Y-120985714D01*
X157571429Y-120985714D01*
X157761905Y-121033333D01*
X157857143Y-121080952D01*
X157904762Y-121128571D01*
X157952381Y-121223809D01*
X157952381Y-121319048D01*
X157904762Y-121414286D01*
X157857143Y-121461905D01*
X157761905Y-121509524D01*
X157571429Y-121557143D01*
X157333333Y-121557143D01*
X157142857Y-121509524D01*
X157047619Y-121461905D01*
X157000000Y-121414286D01*
X156952381Y-121319048D01*
X157857143Y-120557143D02*
X157904762Y-120509524D01*
X157952381Y-120557143D01*
X157904762Y-120604762D01*
X157857143Y-120557143D01*
X157952381Y-120557143D01*
X156952381Y-120176191D02*
X156952381Y-119557143D01*
X157333333Y-119890477D01*
X157333333Y-119747619D01*
X157380952Y-119652381D01*
X157428571Y-119604762D01*
X157523810Y-119557143D01*
X157761905Y-119557143D01*
X157857143Y-119604762D01*
X157904762Y-119652381D01*
X157952381Y-119747619D01*
X157952381Y-120033334D01*
X157904762Y-120128572D01*
X157857143Y-120176191D01*
X156952381Y-119223810D02*
X156952381Y-118604762D01*
X157333333Y-118938096D01*
X157333333Y-118795238D01*
X157380952Y-118700000D01*
X157428571Y-118652381D01*
X157523810Y-118604762D01*
X157761905Y-118604762D01*
X157857143Y-118652381D01*
X157904762Y-118700000D01*
X157952381Y-118795238D01*
X157952381Y-119080953D01*
X157904762Y-119176191D01*
X157857143Y-119223810D01*
X157285714Y-117747619D02*
X157952381Y-117747619D01*
X157285714Y-118176191D02*
X157809524Y-118176191D01*
X157904762Y-118128572D01*
X157952381Y-118033334D01*
X157952381Y-117890476D01*
X157904762Y-117795238D01*
X157857143Y-117747619D01*
X157428571Y-116938095D02*
X157428571Y-117271429D01*
X157952381Y-117271429D02*
X156952381Y-117271429D01*
X156952381Y-116795238D01*
X158652381Y-134942857D02*
X158652381Y-134847618D01*
X158700000Y-134752380D01*
X158747619Y-134704761D01*
X158842857Y-134657142D01*
X159033333Y-134609523D01*
X159271429Y-134609523D01*
X159461905Y-134657142D01*
X159557143Y-134704761D01*
X159604762Y-134752380D01*
X159652381Y-134847618D01*
X159652381Y-134942857D01*
X159604762Y-135038095D01*
X159557143Y-135085714D01*
X159461905Y-135133333D01*
X159271429Y-135180952D01*
X159033333Y-135180952D01*
X158842857Y-135133333D01*
X158747619Y-135085714D01*
X158700000Y-135038095D01*
X158652381Y-134942857D01*
X159557143Y-134180952D02*
X159604762Y-134133333D01*
X159652381Y-134180952D01*
X159604762Y-134228571D01*
X159557143Y-134180952D01*
X159652381Y-134180952D01*
X159652381Y-133180952D02*
X159652381Y-133752381D01*
X159652381Y-133466667D02*
X158652381Y-133466667D01*
X158795238Y-133561905D01*
X158890476Y-133657143D01*
X158938095Y-133752381D01*
X158985714Y-132323809D02*
X159652381Y-132323809D01*
X158985714Y-132752381D02*
X159509524Y-132752381D01*
X159604762Y-132704762D01*
X159652381Y-132609524D01*
X159652381Y-132466666D01*
X159604762Y-132371428D01*
X159557143Y-132323809D01*
X159128571Y-131514285D02*
X159128571Y-131847619D01*
X159652381Y-131847619D02*
X158652381Y-131847619D01*
X158652381Y-131371428D01*
X152552381Y-108042857D02*
X152552381Y-107947618D01*
X152600000Y-107852380D01*
X152647619Y-107804761D01*
X152742857Y-107757142D01*
X152933333Y-107709523D01*
X153171429Y-107709523D01*
X153361905Y-107757142D01*
X153457143Y-107804761D01*
X153504762Y-107852380D01*
X153552381Y-107947618D01*
X153552381Y-108042857D01*
X153504762Y-108138095D01*
X153457143Y-108185714D01*
X153361905Y-108233333D01*
X153171429Y-108280952D01*
X152933333Y-108280952D01*
X152742857Y-108233333D01*
X152647619Y-108185714D01*
X152600000Y-108138095D01*
X152552381Y-108042857D01*
X153457143Y-107280952D02*
X153504762Y-107233333D01*
X153552381Y-107280952D01*
X153504762Y-107328571D01*
X153457143Y-107280952D01*
X153552381Y-107280952D01*
X153552381Y-106280952D02*
X153552381Y-106852381D01*
X153552381Y-106566667D02*
X152552381Y-106566667D01*
X152695238Y-106661905D01*
X152790476Y-106757143D01*
X152838095Y-106852381D01*
X152885714Y-105423809D02*
X153552381Y-105423809D01*
X152885714Y-105852381D02*
X153409524Y-105852381D01*
X153504762Y-105804762D01*
X153552381Y-105709524D01*
X153552381Y-105566666D01*
X153504762Y-105471428D01*
X153457143Y-105423809D01*
X153028571Y-104614285D02*
X153028571Y-104947619D01*
X153552381Y-104947619D02*
X152552381Y-104947619D01*
X152552381Y-104471428D01*
X166095238Y-116928051D02*
X166238095Y-116975670D01*
X166285714Y-117023290D01*
X166333333Y-117118528D01*
X166333333Y-117261385D01*
X166285714Y-117356623D01*
X166238095Y-117404242D01*
X166142857Y-117451861D01*
X165761904Y-117451861D01*
X165761904Y-116451861D01*
X166095238Y-116451861D01*
X166190476Y-116499480D01*
X166238095Y-116547099D01*
X166285714Y-116642337D01*
X166285714Y-116737575D01*
X166238095Y-116832813D01*
X166190476Y-116880432D01*
X166095238Y-116928051D01*
X165761904Y-116928051D01*
X166714285Y-117166147D02*
X167190476Y-117166147D01*
X166619047Y-117451861D02*
X166952380Y-116451861D01*
X167285714Y-117451861D01*
X168190476Y-117451861D02*
X167857142Y-116975670D01*
X167619047Y-117451861D02*
X167619047Y-116451861D01*
X168000000Y-116451861D01*
X168095238Y-116499480D01*
X168142857Y-116547099D01*
X168190476Y-116642337D01*
X168190476Y-116785194D01*
X168142857Y-116880432D01*
X168095238Y-116928051D01*
X168000000Y-116975670D01*
X167619047Y-116975670D01*
X169190476Y-117451861D02*
X168857142Y-116975670D01*
X168619047Y-117451861D02*
X168619047Y-116451861D01*
X169000000Y-116451861D01*
X169095238Y-116499480D01*
X169142857Y-116547099D01*
X169190476Y-116642337D01*
X169190476Y-116785194D01*
X169142857Y-116880432D01*
X169095238Y-116928051D01*
X169000000Y-116975670D01*
X168619047Y-116975670D01*
X169619047Y-116928051D02*
X169952381Y-116928051D01*
X170095238Y-117451861D02*
X169619047Y-117451861D01*
X169619047Y-116451861D01*
X170095238Y-116451861D01*
X171000000Y-117451861D02*
X170523809Y-117451861D01*
X170523809Y-116451861D01*
X171095238Y-117547099D02*
X171857143Y-117547099D01*
X172380953Y-116451861D02*
X172380953Y-117166147D01*
X172333333Y-117309004D01*
X172238095Y-117404242D01*
X172095238Y-117451861D01*
X172000000Y-117451861D01*
X172809524Y-117166147D02*
X173285715Y-117166147D01*
X172714286Y-117451861D02*
X173047619Y-116451861D01*
X173380953Y-117451861D01*
X174285715Y-117356623D02*
X174238096Y-117404242D01*
X174095239Y-117451861D01*
X174000001Y-117451861D01*
X173857143Y-117404242D01*
X173761905Y-117309004D01*
X173714286Y-117213766D01*
X173666667Y-117023290D01*
X173666667Y-116880432D01*
X173714286Y-116689956D01*
X173761905Y-116594718D01*
X173857143Y-116499480D01*
X174000001Y-116451861D01*
X174095239Y-116451861D01*
X174238096Y-116499480D01*
X174285715Y-116547099D01*
X174714286Y-117451861D02*
X174714286Y-116451861D01*
X175285715Y-117451861D02*
X174857143Y-116880432D01*
X175285715Y-116451861D02*
X174714286Y-117023290D01*
X157952381Y-82133333D02*
X156952381Y-82133333D01*
X157952381Y-81180952D02*
X157952381Y-81657143D01*
X156952381Y-81657143D01*
X157428571Y-80847619D02*
X157428571Y-80514285D01*
X157952381Y-80371428D02*
X157952381Y-80847619D01*
X156952381Y-80847619D01*
X156952381Y-80371428D01*
X157952381Y-79942857D02*
X156952381Y-79942857D01*
X156952381Y-79704762D01*
X157000000Y-79561904D01*
X157095238Y-79466666D01*
X157190476Y-79419047D01*
X157380952Y-79371428D01*
X157523810Y-79371428D01*
X157714286Y-79419047D01*
X157809524Y-79466666D01*
X157904762Y-79561904D01*
X157952381Y-79704762D01*
X157952381Y-79942857D01*
X157952381Y-78419047D02*
X157952381Y-78990476D01*
X157952381Y-78704762D02*
X156952381Y-78704762D01*
X157095238Y-78800000D01*
X157190476Y-78895238D01*
X157238095Y-78990476D01*
X150952381Y-82133333D02*
X149952381Y-82133333D01*
X150952381Y-81180952D02*
X150952381Y-81657143D01*
X149952381Y-81657143D01*
X150428571Y-80847619D02*
X150428571Y-80514285D01*
X150952381Y-80371428D02*
X150952381Y-80847619D01*
X149952381Y-80847619D01*
X149952381Y-80371428D01*
X150952381Y-79942857D02*
X149952381Y-79942857D01*
X149952381Y-79704762D01*
X150000000Y-79561904D01*
X150095238Y-79466666D01*
X150190476Y-79419047D01*
X150380952Y-79371428D01*
X150523810Y-79371428D01*
X150714286Y-79419047D01*
X150809524Y-79466666D01*
X150904762Y-79561904D01*
X150952381Y-79704762D01*
X150952381Y-79942857D01*
X150952381Y-78419047D02*
X150952381Y-78990476D01*
X150952381Y-78704762D02*
X149952381Y-78704762D01*
X150095238Y-78800000D01*
X150190476Y-78895238D01*
X150238095Y-78990476D01*
X143952381Y-82133333D02*
X142952381Y-82133333D01*
X143952381Y-81180952D02*
X143952381Y-81657143D01*
X142952381Y-81657143D01*
X143428571Y-80847619D02*
X143428571Y-80514285D01*
X143952381Y-80371428D02*
X143952381Y-80847619D01*
X142952381Y-80847619D01*
X142952381Y-80371428D01*
X143952381Y-79942857D02*
X142952381Y-79942857D01*
X142952381Y-79704762D01*
X143000000Y-79561904D01*
X143095238Y-79466666D01*
X143190476Y-79419047D01*
X143380952Y-79371428D01*
X143523810Y-79371428D01*
X143714286Y-79419047D01*
X143809524Y-79466666D01*
X143904762Y-79561904D01*
X143952381Y-79704762D01*
X143952381Y-79942857D01*
X143952381Y-78419047D02*
X143952381Y-78990476D01*
X143952381Y-78704762D02*
X142952381Y-78704762D01*
X143095238Y-78800000D01*
X143190476Y-78895238D01*
X143238095Y-78990476D01*
X136952381Y-82133333D02*
X135952381Y-82133333D01*
X136952381Y-81180952D02*
X136952381Y-81657143D01*
X135952381Y-81657143D01*
X136428571Y-80847619D02*
X136428571Y-80514285D01*
X136952381Y-80371428D02*
X136952381Y-80847619D01*
X135952381Y-80847619D01*
X135952381Y-80371428D01*
X136952381Y-79942857D02*
X135952381Y-79942857D01*
X135952381Y-79704762D01*
X136000000Y-79561904D01*
X136095238Y-79466666D01*
X136190476Y-79419047D01*
X136380952Y-79371428D01*
X136523810Y-79371428D01*
X136714286Y-79419047D01*
X136809524Y-79466666D01*
X136904762Y-79561904D01*
X136952381Y-79704762D01*
X136952381Y-79942857D01*
X136952381Y-78419047D02*
X136952381Y-78990476D01*
X136952381Y-78704762D02*
X135952381Y-78704762D01*
X136095238Y-78800000D01*
X136190476Y-78895238D01*
X136238095Y-78990476D01*
X129952381Y-82133333D02*
X128952381Y-82133333D01*
X129952381Y-81180952D02*
X129952381Y-81657143D01*
X128952381Y-81657143D01*
X129428571Y-80847619D02*
X129428571Y-80514285D01*
X129952381Y-80371428D02*
X129952381Y-80847619D01*
X128952381Y-80847619D01*
X128952381Y-80371428D01*
X129952381Y-79942857D02*
X128952381Y-79942857D01*
X128952381Y-79704762D01*
X129000000Y-79561904D01*
X129095238Y-79466666D01*
X129190476Y-79419047D01*
X129380952Y-79371428D01*
X129523810Y-79371428D01*
X129714286Y-79419047D01*
X129809524Y-79466666D01*
X129904762Y-79561904D01*
X129952381Y-79704762D01*
X129952381Y-79942857D01*
X129952381Y-78419047D02*
X129952381Y-78990476D01*
X129952381Y-78704762D02*
X128952381Y-78704762D01*
X129095238Y-78800000D01*
X129190476Y-78895238D01*
X129238095Y-78990476D01*
X122952381Y-82133333D02*
X121952381Y-82133333D01*
X122952381Y-81180952D02*
X122952381Y-81657143D01*
X121952381Y-81657143D01*
X122428571Y-80847619D02*
X122428571Y-80514285D01*
X122952381Y-80371428D02*
X122952381Y-80847619D01*
X121952381Y-80847619D01*
X121952381Y-80371428D01*
X122952381Y-79942857D02*
X121952381Y-79942857D01*
X121952381Y-79704762D01*
X122000000Y-79561904D01*
X122095238Y-79466666D01*
X122190476Y-79419047D01*
X122380952Y-79371428D01*
X122523810Y-79371428D01*
X122714286Y-79419047D01*
X122809524Y-79466666D01*
X122904762Y-79561904D01*
X122952381Y-79704762D01*
X122952381Y-79942857D01*
X122952381Y-78419047D02*
X122952381Y-78990476D01*
X122952381Y-78704762D02*
X121952381Y-78704762D01*
X122095238Y-78800000D01*
X122190476Y-78895238D01*
X122238095Y-78990476D01*
X115952381Y-82133333D02*
X114952381Y-82133333D01*
X115952381Y-81180952D02*
X115952381Y-81657143D01*
X114952381Y-81657143D01*
X115428571Y-80847619D02*
X115428571Y-80514285D01*
X115952381Y-80371428D02*
X115952381Y-80847619D01*
X114952381Y-80847619D01*
X114952381Y-80371428D01*
X115952381Y-79942857D02*
X114952381Y-79942857D01*
X114952381Y-79704762D01*
X115000000Y-79561904D01*
X115095238Y-79466666D01*
X115190476Y-79419047D01*
X115380952Y-79371428D01*
X115523810Y-79371428D01*
X115714286Y-79419047D01*
X115809524Y-79466666D01*
X115904762Y-79561904D01*
X115952381Y-79704762D01*
X115952381Y-79942857D01*
X115952381Y-78419047D02*
X115952381Y-78990476D01*
X115952381Y-78704762D02*
X114952381Y-78704762D01*
X115095238Y-78800000D01*
X115190476Y-78895238D01*
X115238095Y-78990476D01*
X108952381Y-82133333D02*
X107952381Y-82133333D01*
X108952381Y-81180952D02*
X108952381Y-81657143D01*
X107952381Y-81657143D01*
X108428571Y-80847619D02*
X108428571Y-80514285D01*
X108952381Y-80371428D02*
X108952381Y-80847619D01*
X107952381Y-80847619D01*
X107952381Y-80371428D01*
X108952381Y-79942857D02*
X107952381Y-79942857D01*
X107952381Y-79704762D01*
X108000000Y-79561904D01*
X108095238Y-79466666D01*
X108190476Y-79419047D01*
X108380952Y-79371428D01*
X108523810Y-79371428D01*
X108714286Y-79419047D01*
X108809524Y-79466666D01*
X108904762Y-79561904D01*
X108952381Y-79704762D01*
X108952381Y-79942857D01*
X108952381Y-78419047D02*
X108952381Y-78990476D01*
X108952381Y-78704762D02*
X107952381Y-78704762D01*
X108095238Y-78800000D01*
X108190476Y-78895238D01*
X108238095Y-78990476D01*
X145916667Y-121671429D02*
X145916667Y-121195238D01*
X146202381Y-121766667D02*
X145202381Y-121433334D01*
X146202381Y-121100000D01*
X145202381Y-120909524D02*
X145202381Y-120338095D01*
X146202381Y-120623810D02*
X145202381Y-120623810D01*
X146202381Y-120004762D02*
X145202381Y-120004762D01*
X145916667Y-119671428D01*
X145202381Y-119338095D01*
X146202381Y-119338095D01*
X145678571Y-118861905D02*
X145678571Y-118528571D01*
X146202381Y-118385714D02*
X146202381Y-118861905D01*
X145202381Y-118861905D01*
X145202381Y-118385714D01*
X145250000Y-117433333D02*
X145202381Y-117528571D01*
X145202381Y-117671428D01*
X145250000Y-117814286D01*
X145345238Y-117909524D01*
X145440476Y-117957143D01*
X145630952Y-118004762D01*
X145773810Y-118004762D01*
X145964286Y-117957143D01*
X146059524Y-117909524D01*
X146154762Y-117814286D01*
X146202381Y-117671428D01*
X146202381Y-117576190D01*
X146154762Y-117433333D01*
X146107143Y-117385714D01*
X145773810Y-117385714D01*
X145773810Y-117576190D01*
X145916667Y-117004762D02*
X145916667Y-116528571D01*
X146202381Y-117100000D02*
X145202381Y-116766667D01*
X146202381Y-116433333D01*
X145202381Y-116195238D02*
X145202381Y-115576190D01*
X145583333Y-115909524D01*
X145583333Y-115766666D01*
X145630952Y-115671428D01*
X145678571Y-115623809D01*
X145773810Y-115576190D01*
X146011905Y-115576190D01*
X146107143Y-115623809D01*
X146154762Y-115671428D01*
X146202381Y-115766666D01*
X146202381Y-116052381D01*
X146154762Y-116147619D01*
X146107143Y-116195238D01*
X145297619Y-115195238D02*
X145250000Y-115147619D01*
X145202381Y-115052381D01*
X145202381Y-114814285D01*
X145250000Y-114719047D01*
X145297619Y-114671428D01*
X145392857Y-114623809D01*
X145488095Y-114623809D01*
X145630952Y-114671428D01*
X146202381Y-115242857D01*
X146202381Y-114623809D01*
X145630952Y-114052381D02*
X145583333Y-114147619D01*
X145535714Y-114195238D01*
X145440476Y-114242857D01*
X145392857Y-114242857D01*
X145297619Y-114195238D01*
X145250000Y-114147619D01*
X145202381Y-114052381D01*
X145202381Y-113861904D01*
X145250000Y-113766666D01*
X145297619Y-113719047D01*
X145392857Y-113671428D01*
X145440476Y-113671428D01*
X145535714Y-113719047D01*
X145583333Y-113766666D01*
X145630952Y-113861904D01*
X145630952Y-114052381D01*
X145678571Y-114147619D01*
X145726190Y-114195238D01*
X145821429Y-114242857D01*
X146011905Y-114242857D01*
X146107143Y-114195238D01*
X146154762Y-114147619D01*
X146202381Y-114052381D01*
X146202381Y-113861904D01*
X146154762Y-113766666D01*
X146107143Y-113719047D01*
X146011905Y-113671428D01*
X145821429Y-113671428D01*
X145726190Y-113719047D01*
X145678571Y-113766666D01*
X145630952Y-113861904D01*
X145821429Y-113242857D02*
X145821429Y-112480952D01*
X145916667Y-112052381D02*
X145916667Y-111576190D01*
X146202381Y-112147619D02*
X145202381Y-111814286D01*
X146202381Y-111480952D01*
X145202381Y-111147619D02*
X146011905Y-111147619D01*
X146107143Y-111100000D01*
X146154762Y-111052381D01*
X146202381Y-110957143D01*
X146202381Y-110766666D01*
X146154762Y-110671428D01*
X146107143Y-110623809D01*
X146011905Y-110576190D01*
X145202381Y-110576190D01*
X139952381Y-117476190D02*
X138952381Y-117476190D01*
X139857143Y-116428571D02*
X139904762Y-116476190D01*
X139952381Y-116619047D01*
X139952381Y-116714285D01*
X139904762Y-116857143D01*
X139809524Y-116952381D01*
X139714286Y-117000000D01*
X139523810Y-117047619D01*
X139380952Y-117047619D01*
X139190476Y-117000000D01*
X139095238Y-116952381D01*
X139000000Y-116857143D01*
X138952381Y-116714285D01*
X138952381Y-116619047D01*
X139000000Y-116476190D01*
X139047619Y-116428571D01*
X139952381Y-115476190D02*
X139952381Y-116047619D01*
X139952381Y-115761905D02*
X138952381Y-115761905D01*
X139095238Y-115857143D01*
X139190476Y-115952381D01*
X139238095Y-116047619D01*
X168176191Y-49557143D02*
X168128572Y-49604762D01*
X167985715Y-49652381D01*
X167890477Y-49652381D01*
X167747619Y-49604762D01*
X167652381Y-49509524D01*
X167604762Y-49414286D01*
X167557143Y-49223810D01*
X167557143Y-49080952D01*
X167604762Y-48890476D01*
X167652381Y-48795238D01*
X167747619Y-48700000D01*
X167890477Y-48652381D01*
X167985715Y-48652381D01*
X168128572Y-48700000D01*
X168176191Y-48747619D01*
X168795238Y-48652381D02*
X168985715Y-48652381D01*
X169080953Y-48700000D01*
X169176191Y-48795238D01*
X169223810Y-48985714D01*
X169223810Y-49319048D01*
X169176191Y-49509524D01*
X169080953Y-49604762D01*
X168985715Y-49652381D01*
X168795238Y-49652381D01*
X168700000Y-49604762D01*
X168604762Y-49509524D01*
X168557143Y-49319048D01*
X168557143Y-48985714D01*
X168604762Y-48795238D01*
X168700000Y-48700000D01*
X168795238Y-48652381D01*
X169652381Y-49652381D02*
X169652381Y-48652381D01*
X170223810Y-49652381D01*
X170223810Y-48652381D01*
X170700000Y-49652381D02*
X170700000Y-48652381D01*
X171271429Y-49652381D01*
X171271429Y-48652381D01*
X171509524Y-49747619D02*
X172271429Y-49747619D01*
X172700000Y-48652381D02*
X172795239Y-48652381D01*
X172890477Y-48700000D01*
X172938096Y-48747619D01*
X172985715Y-48842857D01*
X173033334Y-49033333D01*
X173033334Y-49271429D01*
X172985715Y-49461905D01*
X172938096Y-49557143D01*
X172890477Y-49604762D01*
X172795239Y-49652381D01*
X172700000Y-49652381D01*
X172604762Y-49604762D01*
X172557143Y-49557143D01*
X172509524Y-49461905D01*
X172461905Y-49271429D01*
X172461905Y-49033333D01*
X172509524Y-48842857D01*
X172557143Y-48747619D01*
X172604762Y-48700000D01*
X172700000Y-48652381D01*
X173414286Y-48747619D02*
X173461905Y-48700000D01*
X173557143Y-48652381D01*
X173795239Y-48652381D01*
X173890477Y-48700000D01*
X173938096Y-48747619D01*
X173985715Y-48842857D01*
X173985715Y-48938095D01*
X173938096Y-49080952D01*
X173366667Y-49652381D01*
X173985715Y-49652381D01*
X174319048Y-48652381D02*
X174985715Y-49652381D01*
X174985715Y-48652381D02*
X174319048Y-49652381D01*
X175557143Y-48652381D02*
X175652382Y-48652381D01*
X175747620Y-48700000D01*
X175795239Y-48747619D01*
X175842858Y-48842857D01*
X175890477Y-49033333D01*
X175890477Y-49271429D01*
X175842858Y-49461905D01*
X175795239Y-49557143D01*
X175747620Y-49604762D01*
X175652382Y-49652381D01*
X175557143Y-49652381D01*
X175461905Y-49604762D01*
X175414286Y-49557143D01*
X175366667Y-49461905D01*
X175319048Y-49271429D01*
X175319048Y-49033333D01*
X175366667Y-48842857D01*
X175414286Y-48747619D01*
X175461905Y-48700000D01*
X175557143Y-48652381D01*
X176223810Y-48652381D02*
X176842858Y-48652381D01*
X176509524Y-49033333D01*
X176652382Y-49033333D01*
X176747620Y-49080952D01*
X176795239Y-49128571D01*
X176842858Y-49223810D01*
X176842858Y-49461905D01*
X176795239Y-49557143D01*
X176747620Y-49604762D01*
X176652382Y-49652381D01*
X176366667Y-49652381D01*
X176271429Y-49604762D01*
X176223810Y-49557143D01*
X159509524Y-137752381D02*
X158938095Y-137752381D01*
X159223809Y-137752381D02*
X159223809Y-136752381D01*
X159128571Y-136895238D01*
X159033333Y-136990476D01*
X158938095Y-137038095D01*
X160128571Y-136752381D02*
X160223810Y-136752381D01*
X160319048Y-136800000D01*
X160366667Y-136847619D01*
X160414286Y-136942857D01*
X160461905Y-137133333D01*
X160461905Y-137371429D01*
X160414286Y-137561905D01*
X160366667Y-137657143D01*
X160319048Y-137704762D01*
X160223810Y-137752381D01*
X160128571Y-137752381D01*
X160033333Y-137704762D01*
X159985714Y-137657143D01*
X159938095Y-137561905D01*
X159890476Y-137371429D01*
X159890476Y-137133333D01*
X159938095Y-136942857D01*
X159985714Y-136847619D01*
X160033333Y-136800000D01*
X160128571Y-136752381D01*
X160890476Y-137752381D02*
X160890476Y-136752381D01*
X161461905Y-137752381D02*
X161033333Y-137180952D01*
X161461905Y-136752381D02*
X160890476Y-137323810D01*
X158352381Y-76466666D02*
X158352381Y-77038095D01*
X158352381Y-76752381D02*
X157352381Y-76752381D01*
X157495238Y-76847619D01*
X157590476Y-76942857D01*
X157638095Y-77038095D01*
X157352381Y-75561904D02*
X157352381Y-76038095D01*
X157828571Y-76085714D01*
X157780952Y-76038095D01*
X157733333Y-75942857D01*
X157733333Y-75704761D01*
X157780952Y-75609523D01*
X157828571Y-75561904D01*
X157923810Y-75514285D01*
X158161905Y-75514285D01*
X158257143Y-75561904D01*
X158304762Y-75609523D01*
X158352381Y-75704761D01*
X158352381Y-75942857D01*
X158304762Y-76038095D01*
X158257143Y-76085714D01*
X157352381Y-74895238D02*
X157352381Y-74799999D01*
X157400000Y-74704761D01*
X157447619Y-74657142D01*
X157542857Y-74609523D01*
X157733333Y-74561904D01*
X157971429Y-74561904D01*
X158161905Y-74609523D01*
X158257143Y-74657142D01*
X158304762Y-74704761D01*
X158352381Y-74799999D01*
X158352381Y-74895238D01*
X158304762Y-74990476D01*
X158257143Y-75038095D01*
X158161905Y-75085714D01*
X157971429Y-75133333D01*
X157733333Y-75133333D01*
X157542857Y-75085714D01*
X157447619Y-75038095D01*
X157400000Y-74990476D01*
X157352381Y-74895238D01*
X91823810Y-65647619D02*
X91871429Y-65600000D01*
X91966667Y-65552381D01*
X92204763Y-65552381D01*
X92300001Y-65600000D01*
X92347620Y-65647619D01*
X92395239Y-65742857D01*
X92395239Y-65838095D01*
X92347620Y-65980952D01*
X91776191Y-66552381D01*
X92395239Y-66552381D01*
X92728572Y-65552381D02*
X93347620Y-65552381D01*
X93014286Y-65933333D01*
X93157144Y-65933333D01*
X93252382Y-65980952D01*
X93300001Y-66028571D01*
X93347620Y-66123810D01*
X93347620Y-66361905D01*
X93300001Y-66457143D01*
X93252382Y-66504762D01*
X93157144Y-66552381D01*
X92871429Y-66552381D01*
X92776191Y-66504762D01*
X92728572Y-66457143D01*
X93776191Y-66457143D02*
X93823810Y-66504762D01*
X93776191Y-66552381D01*
X93728572Y-66504762D01*
X93776191Y-66457143D01*
X93776191Y-66552381D01*
X94204762Y-65647619D02*
X94252381Y-65600000D01*
X94347619Y-65552381D01*
X94585715Y-65552381D01*
X94680953Y-65600000D01*
X94728572Y-65647619D01*
X94776191Y-65742857D01*
X94776191Y-65838095D01*
X94728572Y-65980952D01*
X94157143Y-66552381D01*
X94776191Y-66552381D01*
X95204762Y-66552381D02*
X95204762Y-65552381D01*
X95776191Y-66552381D02*
X95347619Y-65980952D01*
X95776191Y-65552381D02*
X95204762Y-66123810D01*
X151352381Y-76466666D02*
X151352381Y-77038095D01*
X151352381Y-76752381D02*
X150352381Y-76752381D01*
X150495238Y-76847619D01*
X150590476Y-76942857D01*
X150638095Y-77038095D01*
X150352381Y-75561904D02*
X150352381Y-76038095D01*
X150828571Y-76085714D01*
X150780952Y-76038095D01*
X150733333Y-75942857D01*
X150733333Y-75704761D01*
X150780952Y-75609523D01*
X150828571Y-75561904D01*
X150923810Y-75514285D01*
X151161905Y-75514285D01*
X151257143Y-75561904D01*
X151304762Y-75609523D01*
X151352381Y-75704761D01*
X151352381Y-75942857D01*
X151304762Y-76038095D01*
X151257143Y-76085714D01*
X150352381Y-74895238D02*
X150352381Y-74799999D01*
X150400000Y-74704761D01*
X150447619Y-74657142D01*
X150542857Y-74609523D01*
X150733333Y-74561904D01*
X150971429Y-74561904D01*
X151161905Y-74609523D01*
X151257143Y-74657142D01*
X151304762Y-74704761D01*
X151352381Y-74799999D01*
X151352381Y-74895238D01*
X151304762Y-74990476D01*
X151257143Y-75038095D01*
X151161905Y-75085714D01*
X150971429Y-75133333D01*
X150733333Y-75133333D01*
X150542857Y-75085714D01*
X150447619Y-75038095D01*
X150400000Y-74990476D01*
X150352381Y-74895238D01*
X144352381Y-76466666D02*
X144352381Y-77038095D01*
X144352381Y-76752381D02*
X143352381Y-76752381D01*
X143495238Y-76847619D01*
X143590476Y-76942857D01*
X143638095Y-77038095D01*
X143352381Y-75561904D02*
X143352381Y-76038095D01*
X143828571Y-76085714D01*
X143780952Y-76038095D01*
X143733333Y-75942857D01*
X143733333Y-75704761D01*
X143780952Y-75609523D01*
X143828571Y-75561904D01*
X143923810Y-75514285D01*
X144161905Y-75514285D01*
X144257143Y-75561904D01*
X144304762Y-75609523D01*
X144352381Y-75704761D01*
X144352381Y-75942857D01*
X144304762Y-76038095D01*
X144257143Y-76085714D01*
X143352381Y-74895238D02*
X143352381Y-74799999D01*
X143400000Y-74704761D01*
X143447619Y-74657142D01*
X143542857Y-74609523D01*
X143733333Y-74561904D01*
X143971429Y-74561904D01*
X144161905Y-74609523D01*
X144257143Y-74657142D01*
X144304762Y-74704761D01*
X144352381Y-74799999D01*
X144352381Y-74895238D01*
X144304762Y-74990476D01*
X144257143Y-75038095D01*
X144161905Y-75085714D01*
X143971429Y-75133333D01*
X143733333Y-75133333D01*
X143542857Y-75085714D01*
X143447619Y-75038095D01*
X143400000Y-74990476D01*
X143352381Y-74895238D01*
X137352381Y-76466666D02*
X137352381Y-77038095D01*
X137352381Y-76752381D02*
X136352381Y-76752381D01*
X136495238Y-76847619D01*
X136590476Y-76942857D01*
X136638095Y-77038095D01*
X136352381Y-75561904D02*
X136352381Y-76038095D01*
X136828571Y-76085714D01*
X136780952Y-76038095D01*
X136733333Y-75942857D01*
X136733333Y-75704761D01*
X136780952Y-75609523D01*
X136828571Y-75561904D01*
X136923810Y-75514285D01*
X137161905Y-75514285D01*
X137257143Y-75561904D01*
X137304762Y-75609523D01*
X137352381Y-75704761D01*
X137352381Y-75942857D01*
X137304762Y-76038095D01*
X137257143Y-76085714D01*
X136352381Y-74895238D02*
X136352381Y-74799999D01*
X136400000Y-74704761D01*
X136447619Y-74657142D01*
X136542857Y-74609523D01*
X136733333Y-74561904D01*
X136971429Y-74561904D01*
X137161905Y-74609523D01*
X137257143Y-74657142D01*
X137304762Y-74704761D01*
X137352381Y-74799999D01*
X137352381Y-74895238D01*
X137304762Y-74990476D01*
X137257143Y-75038095D01*
X137161905Y-75085714D01*
X136971429Y-75133333D01*
X136733333Y-75133333D01*
X136542857Y-75085714D01*
X136447619Y-75038095D01*
X136400000Y-74990476D01*
X136352381Y-74895238D01*
X130352381Y-76466666D02*
X130352381Y-77038095D01*
X130352381Y-76752381D02*
X129352381Y-76752381D01*
X129495238Y-76847619D01*
X129590476Y-76942857D01*
X129638095Y-77038095D01*
X129352381Y-75561904D02*
X129352381Y-76038095D01*
X129828571Y-76085714D01*
X129780952Y-76038095D01*
X129733333Y-75942857D01*
X129733333Y-75704761D01*
X129780952Y-75609523D01*
X129828571Y-75561904D01*
X129923810Y-75514285D01*
X130161905Y-75514285D01*
X130257143Y-75561904D01*
X130304762Y-75609523D01*
X130352381Y-75704761D01*
X130352381Y-75942857D01*
X130304762Y-76038095D01*
X130257143Y-76085714D01*
X129352381Y-74895238D02*
X129352381Y-74799999D01*
X129400000Y-74704761D01*
X129447619Y-74657142D01*
X129542857Y-74609523D01*
X129733333Y-74561904D01*
X129971429Y-74561904D01*
X130161905Y-74609523D01*
X130257143Y-74657142D01*
X130304762Y-74704761D01*
X130352381Y-74799999D01*
X130352381Y-74895238D01*
X130304762Y-74990476D01*
X130257143Y-75038095D01*
X130161905Y-75085714D01*
X129971429Y-75133333D01*
X129733333Y-75133333D01*
X129542857Y-75085714D01*
X129447619Y-75038095D01*
X129400000Y-74990476D01*
X129352381Y-74895238D01*
X123352381Y-76466666D02*
X123352381Y-77038095D01*
X123352381Y-76752381D02*
X122352381Y-76752381D01*
X122495238Y-76847619D01*
X122590476Y-76942857D01*
X122638095Y-77038095D01*
X122352381Y-75561904D02*
X122352381Y-76038095D01*
X122828571Y-76085714D01*
X122780952Y-76038095D01*
X122733333Y-75942857D01*
X122733333Y-75704761D01*
X122780952Y-75609523D01*
X122828571Y-75561904D01*
X122923810Y-75514285D01*
X123161905Y-75514285D01*
X123257143Y-75561904D01*
X123304762Y-75609523D01*
X123352381Y-75704761D01*
X123352381Y-75942857D01*
X123304762Y-76038095D01*
X123257143Y-76085714D01*
X122352381Y-74895238D02*
X122352381Y-74799999D01*
X122400000Y-74704761D01*
X122447619Y-74657142D01*
X122542857Y-74609523D01*
X122733333Y-74561904D01*
X122971429Y-74561904D01*
X123161905Y-74609523D01*
X123257143Y-74657142D01*
X123304762Y-74704761D01*
X123352381Y-74799999D01*
X123352381Y-74895238D01*
X123304762Y-74990476D01*
X123257143Y-75038095D01*
X123161905Y-75085714D01*
X122971429Y-75133333D01*
X122733333Y-75133333D01*
X122542857Y-75085714D01*
X122447619Y-75038095D01*
X122400000Y-74990476D01*
X122352381Y-74895238D01*
X116352381Y-76466666D02*
X116352381Y-77038095D01*
X116352381Y-76752381D02*
X115352381Y-76752381D01*
X115495238Y-76847619D01*
X115590476Y-76942857D01*
X115638095Y-77038095D01*
X115352381Y-75561904D02*
X115352381Y-76038095D01*
X115828571Y-76085714D01*
X115780952Y-76038095D01*
X115733333Y-75942857D01*
X115733333Y-75704761D01*
X115780952Y-75609523D01*
X115828571Y-75561904D01*
X115923810Y-75514285D01*
X116161905Y-75514285D01*
X116257143Y-75561904D01*
X116304762Y-75609523D01*
X116352381Y-75704761D01*
X116352381Y-75942857D01*
X116304762Y-76038095D01*
X116257143Y-76085714D01*
X115352381Y-74895238D02*
X115352381Y-74799999D01*
X115400000Y-74704761D01*
X115447619Y-74657142D01*
X115542857Y-74609523D01*
X115733333Y-74561904D01*
X115971429Y-74561904D01*
X116161905Y-74609523D01*
X116257143Y-74657142D01*
X116304762Y-74704761D01*
X116352381Y-74799999D01*
X116352381Y-74895238D01*
X116304762Y-74990476D01*
X116257143Y-75038095D01*
X116161905Y-75085714D01*
X115971429Y-75133333D01*
X115733333Y-75133333D01*
X115542857Y-75085714D01*
X115447619Y-75038095D01*
X115400000Y-74990476D01*
X115352381Y-74895238D01*
X109352381Y-76466666D02*
X109352381Y-77038095D01*
X109352381Y-76752381D02*
X108352381Y-76752381D01*
X108495238Y-76847619D01*
X108590476Y-76942857D01*
X108638095Y-77038095D01*
X108352381Y-75561904D02*
X108352381Y-76038095D01*
X108828571Y-76085714D01*
X108780952Y-76038095D01*
X108733333Y-75942857D01*
X108733333Y-75704761D01*
X108780952Y-75609523D01*
X108828571Y-75561904D01*
X108923810Y-75514285D01*
X109161905Y-75514285D01*
X109257143Y-75561904D01*
X109304762Y-75609523D01*
X109352381Y-75704761D01*
X109352381Y-75942857D01*
X109304762Y-76038095D01*
X109257143Y-76085714D01*
X108352381Y-74895238D02*
X108352381Y-74799999D01*
X108400000Y-74704761D01*
X108447619Y-74657142D01*
X108542857Y-74609523D01*
X108733333Y-74561904D01*
X108971429Y-74561904D01*
X109161905Y-74609523D01*
X109257143Y-74657142D01*
X109304762Y-74704761D01*
X109352381Y-74799999D01*
X109352381Y-74895238D01*
X109304762Y-74990476D01*
X109257143Y-75038095D01*
X109161905Y-75085714D01*
X108971429Y-75133333D01*
X108733333Y-75133333D01*
X108542857Y-75085714D01*
X108447619Y-75038095D01*
X108400000Y-74990476D01*
X108352381Y-74895238D01*
X126690476Y-91852381D02*
X127309524Y-91852381D01*
X126976190Y-92233333D01*
X127119048Y-92233333D01*
X127214286Y-92280952D01*
X127261905Y-92328571D01*
X127309524Y-92423810D01*
X127309524Y-92661905D01*
X127261905Y-92757143D01*
X127214286Y-92804762D01*
X127119048Y-92852381D01*
X126833333Y-92852381D01*
X126738095Y-92804762D01*
X126690476Y-92757143D01*
X127738095Y-92852381D02*
X127738095Y-91852381D01*
X128309524Y-92852381D02*
X127880952Y-92280952D01*
X128309524Y-91852381D02*
X127738095Y-92423810D01*
X128642857Y-91852381D02*
X129261905Y-91852381D01*
X128928571Y-92233333D01*
X129071429Y-92233333D01*
X129166667Y-92280952D01*
X129214286Y-92328571D01*
X129261905Y-92423810D01*
X129261905Y-92661905D01*
X129214286Y-92757143D01*
X129166667Y-92804762D01*
X129071429Y-92852381D01*
X128785714Y-92852381D01*
X128690476Y-92804762D01*
X128642857Y-92757143D01*
X119690476Y-91852381D02*
X120309524Y-91852381D01*
X119976190Y-92233333D01*
X120119048Y-92233333D01*
X120214286Y-92280952D01*
X120261905Y-92328571D01*
X120309524Y-92423810D01*
X120309524Y-92661905D01*
X120261905Y-92757143D01*
X120214286Y-92804762D01*
X120119048Y-92852381D01*
X119833333Y-92852381D01*
X119738095Y-92804762D01*
X119690476Y-92757143D01*
X120738095Y-92852381D02*
X120738095Y-91852381D01*
X121309524Y-92852381D02*
X120880952Y-92280952D01*
X121309524Y-91852381D02*
X120738095Y-92423810D01*
X121642857Y-91852381D02*
X122261905Y-91852381D01*
X121928571Y-92233333D01*
X122071429Y-92233333D01*
X122166667Y-92280952D01*
X122214286Y-92328571D01*
X122261905Y-92423810D01*
X122261905Y-92661905D01*
X122214286Y-92757143D01*
X122166667Y-92804762D01*
X122071429Y-92852381D01*
X121785714Y-92852381D01*
X121690476Y-92804762D01*
X121642857Y-92757143D01*
X112690476Y-91852381D02*
X113309524Y-91852381D01*
X112976190Y-92233333D01*
X113119048Y-92233333D01*
X113214286Y-92280952D01*
X113261905Y-92328571D01*
X113309524Y-92423810D01*
X113309524Y-92661905D01*
X113261905Y-92757143D01*
X113214286Y-92804762D01*
X113119048Y-92852381D01*
X112833333Y-92852381D01*
X112738095Y-92804762D01*
X112690476Y-92757143D01*
X113738095Y-92852381D02*
X113738095Y-91852381D01*
X114309524Y-92852381D02*
X113880952Y-92280952D01*
X114309524Y-91852381D02*
X113738095Y-92423810D01*
X114642857Y-91852381D02*
X115261905Y-91852381D01*
X114928571Y-92233333D01*
X115071429Y-92233333D01*
X115166667Y-92280952D01*
X115214286Y-92328571D01*
X115261905Y-92423810D01*
X115261905Y-92661905D01*
X115214286Y-92757143D01*
X115166667Y-92804762D01*
X115071429Y-92852381D01*
X114785714Y-92852381D01*
X114690476Y-92804762D01*
X114642857Y-92757143D01*
X105690476Y-91852381D02*
X106309524Y-91852381D01*
X105976190Y-92233333D01*
X106119048Y-92233333D01*
X106214286Y-92280952D01*
X106261905Y-92328571D01*
X106309524Y-92423810D01*
X106309524Y-92661905D01*
X106261905Y-92757143D01*
X106214286Y-92804762D01*
X106119048Y-92852381D01*
X105833333Y-92852381D01*
X105738095Y-92804762D01*
X105690476Y-92757143D01*
X106738095Y-92852381D02*
X106738095Y-91852381D01*
X107309524Y-92852381D02*
X106880952Y-92280952D01*
X107309524Y-91852381D02*
X106738095Y-92423810D01*
X107642857Y-91852381D02*
X108261905Y-91852381D01*
X107928571Y-92233333D01*
X108071429Y-92233333D01*
X108166667Y-92280952D01*
X108214286Y-92328571D01*
X108261905Y-92423810D01*
X108261905Y-92661905D01*
X108214286Y-92757143D01*
X108166667Y-92804762D01*
X108071429Y-92852381D01*
X107785714Y-92852381D01*
X107690476Y-92804762D01*
X107642857Y-92757143D01*
X105690476Y-99652381D02*
X106309524Y-99652381D01*
X105976190Y-100033333D01*
X106119048Y-100033333D01*
X106214286Y-100080952D01*
X106261905Y-100128571D01*
X106309524Y-100223810D01*
X106309524Y-100461905D01*
X106261905Y-100557143D01*
X106214286Y-100604762D01*
X106119048Y-100652381D01*
X105833333Y-100652381D01*
X105738095Y-100604762D01*
X105690476Y-100557143D01*
X106738095Y-100652381D02*
X106738095Y-99652381D01*
X107309524Y-100652381D02*
X106880952Y-100080952D01*
X107309524Y-99652381D02*
X106738095Y-100223810D01*
X107642857Y-99652381D02*
X108261905Y-99652381D01*
X107928571Y-100033333D01*
X108071429Y-100033333D01*
X108166667Y-100080952D01*
X108214286Y-100128571D01*
X108261905Y-100223810D01*
X108261905Y-100461905D01*
X108214286Y-100557143D01*
X108166667Y-100604762D01*
X108071429Y-100652381D01*
X107785714Y-100652381D01*
X107690476Y-100604762D01*
X107642857Y-100557143D01*
X154690476Y-91852381D02*
X155309524Y-91852381D01*
X154976190Y-92233333D01*
X155119048Y-92233333D01*
X155214286Y-92280952D01*
X155261905Y-92328571D01*
X155309524Y-92423810D01*
X155309524Y-92661905D01*
X155261905Y-92757143D01*
X155214286Y-92804762D01*
X155119048Y-92852381D01*
X154833333Y-92852381D01*
X154738095Y-92804762D01*
X154690476Y-92757143D01*
X155738095Y-92852381D02*
X155738095Y-91852381D01*
X156309524Y-92852381D02*
X155880952Y-92280952D01*
X156309524Y-91852381D02*
X155738095Y-92423810D01*
X156642857Y-91852381D02*
X157261905Y-91852381D01*
X156928571Y-92233333D01*
X157071429Y-92233333D01*
X157166667Y-92280952D01*
X157214286Y-92328571D01*
X157261905Y-92423810D01*
X157261905Y-92661905D01*
X157214286Y-92757143D01*
X157166667Y-92804762D01*
X157071429Y-92852381D01*
X156785714Y-92852381D01*
X156690476Y-92804762D01*
X156642857Y-92757143D01*
X147690476Y-91852381D02*
X148309524Y-91852381D01*
X147976190Y-92233333D01*
X148119048Y-92233333D01*
X148214286Y-92280952D01*
X148261905Y-92328571D01*
X148309524Y-92423810D01*
X148309524Y-92661905D01*
X148261905Y-92757143D01*
X148214286Y-92804762D01*
X148119048Y-92852381D01*
X147833333Y-92852381D01*
X147738095Y-92804762D01*
X147690476Y-92757143D01*
X148738095Y-92852381D02*
X148738095Y-91852381D01*
X149309524Y-92852381D02*
X148880952Y-92280952D01*
X149309524Y-91852381D02*
X148738095Y-92423810D01*
X149642857Y-91852381D02*
X150261905Y-91852381D01*
X149928571Y-92233333D01*
X150071429Y-92233333D01*
X150166667Y-92280952D01*
X150214286Y-92328571D01*
X150261905Y-92423810D01*
X150261905Y-92661905D01*
X150214286Y-92757143D01*
X150166667Y-92804762D01*
X150071429Y-92852381D01*
X149785714Y-92852381D01*
X149690476Y-92804762D01*
X149642857Y-92757143D01*
X140690476Y-91852381D02*
X141309524Y-91852381D01*
X140976190Y-92233333D01*
X141119048Y-92233333D01*
X141214286Y-92280952D01*
X141261905Y-92328571D01*
X141309524Y-92423810D01*
X141309524Y-92661905D01*
X141261905Y-92757143D01*
X141214286Y-92804762D01*
X141119048Y-92852381D01*
X140833333Y-92852381D01*
X140738095Y-92804762D01*
X140690476Y-92757143D01*
X141738095Y-92852381D02*
X141738095Y-91852381D01*
X142309524Y-92852381D02*
X141880952Y-92280952D01*
X142309524Y-91852381D02*
X141738095Y-92423810D01*
X142642857Y-91852381D02*
X143261905Y-91852381D01*
X142928571Y-92233333D01*
X143071429Y-92233333D01*
X143166667Y-92280952D01*
X143214286Y-92328571D01*
X143261905Y-92423810D01*
X143261905Y-92661905D01*
X143214286Y-92757143D01*
X143166667Y-92804762D01*
X143071429Y-92852381D01*
X142785714Y-92852381D01*
X142690476Y-92804762D01*
X142642857Y-92757143D01*
X133690476Y-91852381D02*
X134309524Y-91852381D01*
X133976190Y-92233333D01*
X134119048Y-92233333D01*
X134214286Y-92280952D01*
X134261905Y-92328571D01*
X134309524Y-92423810D01*
X134309524Y-92661905D01*
X134261905Y-92757143D01*
X134214286Y-92804762D01*
X134119048Y-92852381D01*
X133833333Y-92852381D01*
X133738095Y-92804762D01*
X133690476Y-92757143D01*
X134738095Y-92852381D02*
X134738095Y-91852381D01*
X135309524Y-92852381D02*
X134880952Y-92280952D01*
X135309524Y-91852381D02*
X134738095Y-92423810D01*
X135642857Y-91852381D02*
X136261905Y-91852381D01*
X135928571Y-92233333D01*
X136071429Y-92233333D01*
X136166667Y-92280952D01*
X136214286Y-92328571D01*
X136261905Y-92423810D01*
X136261905Y-92661905D01*
X136214286Y-92757143D01*
X136166667Y-92804762D01*
X136071429Y-92852381D01*
X135785714Y-92852381D01*
X135690476Y-92804762D01*
X135642857Y-92757143D01*
X133690476Y-99652381D02*
X134309524Y-99652381D01*
X133976190Y-100033333D01*
X134119048Y-100033333D01*
X134214286Y-100080952D01*
X134261905Y-100128571D01*
X134309524Y-100223810D01*
X134309524Y-100461905D01*
X134261905Y-100557143D01*
X134214286Y-100604762D01*
X134119048Y-100652381D01*
X133833333Y-100652381D01*
X133738095Y-100604762D01*
X133690476Y-100557143D01*
X134738095Y-100652381D02*
X134738095Y-99652381D01*
X135309524Y-100652381D02*
X134880952Y-100080952D01*
X135309524Y-99652381D02*
X134738095Y-100223810D01*
X135642857Y-99652381D02*
X136261905Y-99652381D01*
X135928571Y-100033333D01*
X136071429Y-100033333D01*
X136166667Y-100080952D01*
X136214286Y-100128571D01*
X136261905Y-100223810D01*
X136261905Y-100461905D01*
X136214286Y-100557143D01*
X136166667Y-100604762D01*
X136071429Y-100652381D01*
X135785714Y-100652381D01*
X135690476Y-100604762D01*
X135642857Y-100557143D01*
X164809524Y-141152381D02*
X164238095Y-141152381D01*
X164523809Y-141152381D02*
X164523809Y-140152381D01*
X164428571Y-140295238D01*
X164333333Y-140390476D01*
X164238095Y-140438095D01*
X165428571Y-140152381D02*
X165523810Y-140152381D01*
X165619048Y-140200000D01*
X165666667Y-140247619D01*
X165714286Y-140342857D01*
X165761905Y-140533333D01*
X165761905Y-140771429D01*
X165714286Y-140961905D01*
X165666667Y-141057143D01*
X165619048Y-141104762D01*
X165523810Y-141152381D01*
X165428571Y-141152381D01*
X165333333Y-141104762D01*
X165285714Y-141057143D01*
X165238095Y-140961905D01*
X165190476Y-140771429D01*
X165190476Y-140533333D01*
X165238095Y-140342857D01*
X165285714Y-140247619D01*
X165333333Y-140200000D01*
X165428571Y-140152381D01*
X166190476Y-141152381D02*
X166190476Y-140152381D01*
X166761905Y-141152381D02*
X166333333Y-140580952D01*
X166761905Y-140152381D02*
X166190476Y-140723810D01*
X130009524Y-111252381D02*
X129438095Y-111252381D01*
X129723809Y-111252381D02*
X129723809Y-110252381D01*
X129628571Y-110395238D01*
X129533333Y-110490476D01*
X129438095Y-110538095D01*
X130628571Y-110252381D02*
X130723810Y-110252381D01*
X130819048Y-110300000D01*
X130866667Y-110347619D01*
X130914286Y-110442857D01*
X130961905Y-110633333D01*
X130961905Y-110871429D01*
X130914286Y-111061905D01*
X130866667Y-111157143D01*
X130819048Y-111204762D01*
X130723810Y-111252381D01*
X130628571Y-111252381D01*
X130533333Y-111204762D01*
X130485714Y-111157143D01*
X130438095Y-111061905D01*
X130390476Y-110871429D01*
X130390476Y-110633333D01*
X130438095Y-110442857D01*
X130485714Y-110347619D01*
X130533333Y-110300000D01*
X130628571Y-110252381D01*
X131390476Y-111252381D02*
X131390476Y-110252381D01*
X131961905Y-111252381D02*
X131533333Y-110680952D01*
X131961905Y-110252381D02*
X131390476Y-110823810D01*
X129052381Y-118390476D02*
X129052381Y-118961905D01*
X129052381Y-118676191D02*
X128052381Y-118676191D01*
X128195238Y-118771429D01*
X128290476Y-118866667D01*
X128338095Y-118961905D01*
X128052381Y-117771429D02*
X128052381Y-117676190D01*
X128100000Y-117580952D01*
X128147619Y-117533333D01*
X128242857Y-117485714D01*
X128433333Y-117438095D01*
X128671429Y-117438095D01*
X128861905Y-117485714D01*
X128957143Y-117533333D01*
X129004762Y-117580952D01*
X129052381Y-117676190D01*
X129052381Y-117771429D01*
X129004762Y-117866667D01*
X128957143Y-117914286D01*
X128861905Y-117961905D01*
X128671429Y-118009524D01*
X128433333Y-118009524D01*
X128242857Y-117961905D01*
X128147619Y-117914286D01*
X128100000Y-117866667D01*
X128052381Y-117771429D01*
X129052381Y-117009524D02*
X128052381Y-117009524D01*
X129052381Y-116438095D02*
X128480952Y-116866667D01*
X128052381Y-116438095D02*
X128623810Y-117009524D01*
X164238095Y-132904762D02*
X164380952Y-132952381D01*
X164619048Y-132952381D01*
X164714286Y-132904762D01*
X164761905Y-132857143D01*
X164809524Y-132761905D01*
X164809524Y-132666667D01*
X164761905Y-132571429D01*
X164714286Y-132523810D01*
X164619048Y-132476190D01*
X164428571Y-132428571D01*
X164333333Y-132380952D01*
X164285714Y-132333333D01*
X164238095Y-132238095D01*
X164238095Y-132142857D01*
X164285714Y-132047619D01*
X164333333Y-132000000D01*
X164428571Y-131952381D01*
X164666667Y-131952381D01*
X164809524Y-132000000D01*
X165142857Y-131952381D02*
X165380952Y-132952381D01*
X165571429Y-132238095D01*
X165761905Y-132952381D01*
X166000000Y-131952381D01*
X166142857Y-133047619D02*
X166904762Y-133047619D01*
X167142857Y-132952381D02*
X167142857Y-131952381D01*
X167523810Y-131952381D01*
X167619048Y-132000000D01*
X167666667Y-132047619D01*
X167714286Y-132142857D01*
X167714286Y-132285714D01*
X167666667Y-132380952D01*
X167619048Y-132428571D01*
X167523810Y-132476190D01*
X167142857Y-132476190D01*
X168142857Y-131952381D02*
X168142857Y-132761905D01*
X168190476Y-132857143D01*
X168238095Y-132904762D01*
X168333333Y-132952381D01*
X168523810Y-132952381D01*
X168619048Y-132904762D01*
X168666667Y-132857143D01*
X168714286Y-132761905D01*
X168714286Y-131952381D01*
X169142857Y-132904762D02*
X169285714Y-132952381D01*
X169523810Y-132952381D01*
X169619048Y-132904762D01*
X169666667Y-132857143D01*
X169714286Y-132761905D01*
X169714286Y-132666667D01*
X169666667Y-132571429D01*
X169619048Y-132523810D01*
X169523810Y-132476190D01*
X169333333Y-132428571D01*
X169238095Y-132380952D01*
X169190476Y-132333333D01*
X169142857Y-132238095D01*
X169142857Y-132142857D01*
X169190476Y-132047619D01*
X169238095Y-132000000D01*
X169333333Y-131952381D01*
X169571429Y-131952381D01*
X169714286Y-132000000D01*
X170142857Y-132952381D02*
X170142857Y-131952381D01*
X170142857Y-132428571D02*
X170714286Y-132428571D01*
X170714286Y-132952381D02*
X170714286Y-131952381D01*
X131452381Y-89180952D02*
X130452381Y-89180952D01*
X130785714Y-88704762D02*
X131452381Y-88704762D01*
X130880952Y-88704762D02*
X130833333Y-88657143D01*
X130785714Y-88561905D01*
X130785714Y-88419047D01*
X130833333Y-88323809D01*
X130928571Y-88276190D01*
X131452381Y-88276190D01*
X131452381Y-87371428D02*
X130452381Y-87371428D01*
X131404762Y-87371428D02*
X131452381Y-87466666D01*
X131452381Y-87657143D01*
X131404762Y-87752381D01*
X131357143Y-87800000D01*
X131261905Y-87847619D01*
X130976190Y-87847619D01*
X130880952Y-87800000D01*
X130833333Y-87752381D01*
X130785714Y-87657143D01*
X130785714Y-87466666D01*
X130833333Y-87371428D01*
X130452381Y-86419047D02*
X130452381Y-86895238D01*
X130928571Y-86942857D01*
X130880952Y-86895238D01*
X130833333Y-86800000D01*
X130833333Y-86561904D01*
X130880952Y-86466666D01*
X130928571Y-86419047D01*
X131023810Y-86371428D01*
X131261905Y-86371428D01*
X131357143Y-86419047D01*
X131404762Y-86466666D01*
X131452381Y-86561904D01*
X131452381Y-86800000D01*
X131404762Y-86895238D01*
X131357143Y-86942857D01*
X124452381Y-89180952D02*
X123452381Y-89180952D01*
X123785714Y-88704762D02*
X124452381Y-88704762D01*
X123880952Y-88704762D02*
X123833333Y-88657143D01*
X123785714Y-88561905D01*
X123785714Y-88419047D01*
X123833333Y-88323809D01*
X123928571Y-88276190D01*
X124452381Y-88276190D01*
X124452381Y-87371428D02*
X123452381Y-87371428D01*
X124404762Y-87371428D02*
X124452381Y-87466666D01*
X124452381Y-87657143D01*
X124404762Y-87752381D01*
X124357143Y-87800000D01*
X124261905Y-87847619D01*
X123976190Y-87847619D01*
X123880952Y-87800000D01*
X123833333Y-87752381D01*
X123785714Y-87657143D01*
X123785714Y-87466666D01*
X123833333Y-87371428D01*
X123452381Y-86466666D02*
X123452381Y-86657143D01*
X123500000Y-86752381D01*
X123547619Y-86800000D01*
X123690476Y-86895238D01*
X123880952Y-86942857D01*
X124261905Y-86942857D01*
X124357143Y-86895238D01*
X124404762Y-86847619D01*
X124452381Y-86752381D01*
X124452381Y-86561904D01*
X124404762Y-86466666D01*
X124357143Y-86419047D01*
X124261905Y-86371428D01*
X124023810Y-86371428D01*
X123928571Y-86419047D01*
X123880952Y-86466666D01*
X123833333Y-86561904D01*
X123833333Y-86752381D01*
X123880952Y-86847619D01*
X123928571Y-86895238D01*
X124023810Y-86942857D01*
X117452381Y-89180952D02*
X116452381Y-89180952D01*
X116785714Y-88704762D02*
X117452381Y-88704762D01*
X116880952Y-88704762D02*
X116833333Y-88657143D01*
X116785714Y-88561905D01*
X116785714Y-88419047D01*
X116833333Y-88323809D01*
X116928571Y-88276190D01*
X117452381Y-88276190D01*
X117452381Y-87371428D02*
X116452381Y-87371428D01*
X117404762Y-87371428D02*
X117452381Y-87466666D01*
X117452381Y-87657143D01*
X117404762Y-87752381D01*
X117357143Y-87800000D01*
X117261905Y-87847619D01*
X116976190Y-87847619D01*
X116880952Y-87800000D01*
X116833333Y-87752381D01*
X116785714Y-87657143D01*
X116785714Y-87466666D01*
X116833333Y-87371428D01*
X116452381Y-86990476D02*
X116452381Y-86323809D01*
X117452381Y-86752381D01*
X110452381Y-89180952D02*
X109452381Y-89180952D01*
X109785714Y-88704762D02*
X110452381Y-88704762D01*
X109880952Y-88704762D02*
X109833333Y-88657143D01*
X109785714Y-88561905D01*
X109785714Y-88419047D01*
X109833333Y-88323809D01*
X109928571Y-88276190D01*
X110452381Y-88276190D01*
X110452381Y-87371428D02*
X109452381Y-87371428D01*
X110404762Y-87371428D02*
X110452381Y-87466666D01*
X110452381Y-87657143D01*
X110404762Y-87752381D01*
X110357143Y-87800000D01*
X110261905Y-87847619D01*
X109976190Y-87847619D01*
X109880952Y-87800000D01*
X109833333Y-87752381D01*
X109785714Y-87657143D01*
X109785714Y-87466666D01*
X109833333Y-87371428D01*
X109880952Y-86752381D02*
X109833333Y-86847619D01*
X109785714Y-86895238D01*
X109690476Y-86942857D01*
X109642857Y-86942857D01*
X109547619Y-86895238D01*
X109500000Y-86847619D01*
X109452381Y-86752381D01*
X109452381Y-86561904D01*
X109500000Y-86466666D01*
X109547619Y-86419047D01*
X109642857Y-86371428D01*
X109690476Y-86371428D01*
X109785714Y-86419047D01*
X109833333Y-86466666D01*
X109880952Y-86561904D01*
X109880952Y-86752381D01*
X109928571Y-86847619D01*
X109976190Y-86895238D01*
X110071429Y-86942857D01*
X110261905Y-86942857D01*
X110357143Y-86895238D01*
X110404762Y-86847619D01*
X110452381Y-86752381D01*
X110452381Y-86561904D01*
X110404762Y-86466666D01*
X110357143Y-86419047D01*
X110261905Y-86371428D01*
X110071429Y-86371428D01*
X109976190Y-86419047D01*
X109928571Y-86466666D01*
X109880952Y-86561904D01*
X159452381Y-89180952D02*
X158452381Y-89180952D01*
X158785714Y-88704762D02*
X159452381Y-88704762D01*
X158880952Y-88704762D02*
X158833333Y-88657143D01*
X158785714Y-88561905D01*
X158785714Y-88419047D01*
X158833333Y-88323809D01*
X158928571Y-88276190D01*
X159452381Y-88276190D01*
X159452381Y-87371428D02*
X158452381Y-87371428D01*
X159404762Y-87371428D02*
X159452381Y-87466666D01*
X159452381Y-87657143D01*
X159404762Y-87752381D01*
X159357143Y-87800000D01*
X159261905Y-87847619D01*
X158976190Y-87847619D01*
X158880952Y-87800000D01*
X158833333Y-87752381D01*
X158785714Y-87657143D01*
X158785714Y-87466666D01*
X158833333Y-87371428D01*
X159452381Y-86371428D02*
X159452381Y-86942857D01*
X159452381Y-86657143D02*
X158452381Y-86657143D01*
X158595238Y-86752381D01*
X158690476Y-86847619D01*
X158738095Y-86942857D01*
X152452381Y-89180952D02*
X151452381Y-89180952D01*
X151785714Y-88704762D02*
X152452381Y-88704762D01*
X151880952Y-88704762D02*
X151833333Y-88657143D01*
X151785714Y-88561905D01*
X151785714Y-88419047D01*
X151833333Y-88323809D01*
X151928571Y-88276190D01*
X152452381Y-88276190D01*
X152452381Y-87371428D02*
X151452381Y-87371428D01*
X152404762Y-87371428D02*
X152452381Y-87466666D01*
X152452381Y-87657143D01*
X152404762Y-87752381D01*
X152357143Y-87800000D01*
X152261905Y-87847619D01*
X151976190Y-87847619D01*
X151880952Y-87800000D01*
X151833333Y-87752381D01*
X151785714Y-87657143D01*
X151785714Y-87466666D01*
X151833333Y-87371428D01*
X151547619Y-86942857D02*
X151500000Y-86895238D01*
X151452381Y-86800000D01*
X151452381Y-86561904D01*
X151500000Y-86466666D01*
X151547619Y-86419047D01*
X151642857Y-86371428D01*
X151738095Y-86371428D01*
X151880952Y-86419047D01*
X152452381Y-86990476D01*
X152452381Y-86371428D01*
X145452381Y-89180952D02*
X144452381Y-89180952D01*
X144785714Y-88704762D02*
X145452381Y-88704762D01*
X144880952Y-88704762D02*
X144833333Y-88657143D01*
X144785714Y-88561905D01*
X144785714Y-88419047D01*
X144833333Y-88323809D01*
X144928571Y-88276190D01*
X145452381Y-88276190D01*
X145452381Y-87371428D02*
X144452381Y-87371428D01*
X145404762Y-87371428D02*
X145452381Y-87466666D01*
X145452381Y-87657143D01*
X145404762Y-87752381D01*
X145357143Y-87800000D01*
X145261905Y-87847619D01*
X144976190Y-87847619D01*
X144880952Y-87800000D01*
X144833333Y-87752381D01*
X144785714Y-87657143D01*
X144785714Y-87466666D01*
X144833333Y-87371428D01*
X144452381Y-86990476D02*
X144452381Y-86371428D01*
X144833333Y-86704762D01*
X144833333Y-86561904D01*
X144880952Y-86466666D01*
X144928571Y-86419047D01*
X145023810Y-86371428D01*
X145261905Y-86371428D01*
X145357143Y-86419047D01*
X145404762Y-86466666D01*
X145452381Y-86561904D01*
X145452381Y-86847619D01*
X145404762Y-86942857D01*
X145357143Y-86990476D01*
X138452381Y-89180952D02*
X137452381Y-89180952D01*
X137785714Y-88704762D02*
X138452381Y-88704762D01*
X137880952Y-88704762D02*
X137833333Y-88657143D01*
X137785714Y-88561905D01*
X137785714Y-88419047D01*
X137833333Y-88323809D01*
X137928571Y-88276190D01*
X138452381Y-88276190D01*
X138452381Y-87371428D02*
X137452381Y-87371428D01*
X138404762Y-87371428D02*
X138452381Y-87466666D01*
X138452381Y-87657143D01*
X138404762Y-87752381D01*
X138357143Y-87800000D01*
X138261905Y-87847619D01*
X137976190Y-87847619D01*
X137880952Y-87800000D01*
X137833333Y-87752381D01*
X137785714Y-87657143D01*
X137785714Y-87466666D01*
X137833333Y-87371428D01*
X137785714Y-86466666D02*
X138452381Y-86466666D01*
X137404762Y-86704762D02*
X138119048Y-86942857D01*
X138119048Y-86323809D01*
D12*
X93671666Y-56648167D02*
X94095000Y-56648167D01*
X93587000Y-56902167D02*
X93883333Y-56013167D01*
X94179666Y-56902167D01*
X94433666Y-56859833D02*
X94560666Y-56902167D01*
X94772333Y-56902167D01*
X94857000Y-56859833D01*
X94899333Y-56817500D01*
X94941666Y-56732833D01*
X94941666Y-56648167D01*
X94899333Y-56563500D01*
X94857000Y-56521167D01*
X94772333Y-56478833D01*
X94603000Y-56436500D01*
X94518333Y-56394167D01*
X94476000Y-56351833D01*
X94433666Y-56267167D01*
X94433666Y-56182500D01*
X94476000Y-56097833D01*
X94518333Y-56055500D01*
X94603000Y-56013167D01*
X94814666Y-56013167D01*
X94941666Y-56055500D01*
X95788333Y-56902167D02*
X95280333Y-56902167D01*
X95534333Y-56902167D02*
X95534333Y-56013167D01*
X95449667Y-56140167D01*
X95365000Y-56224833D01*
X95280333Y-56267167D01*
X96635000Y-56902167D02*
X96127000Y-56902167D01*
X96381000Y-56902167D02*
X96381000Y-56013167D01*
X96296334Y-56140167D01*
X96211667Y-56224833D01*
X96127000Y-56267167D01*
X97481667Y-56902167D02*
X96973667Y-56902167D01*
X97227667Y-56902167D02*
X97227667Y-56013167D01*
X97143001Y-56140167D01*
X97058334Y-56224833D01*
X96973667Y-56267167D01*
X98286001Y-56013167D02*
X97862668Y-56013167D01*
X97820334Y-56436500D01*
X97862668Y-56394167D01*
X97947334Y-56351833D01*
X98159001Y-56351833D01*
X98243668Y-56394167D01*
X98286001Y-56436500D01*
X98328334Y-56521167D01*
X98328334Y-56732833D01*
X98286001Y-56817500D01*
X98243668Y-56859833D01*
X98159001Y-56902167D01*
X97947334Y-56902167D01*
X97862668Y-56859833D01*
X97820334Y-56817500D01*
D11*
X139652381Y-107061905D02*
X139652381Y-106395238D01*
X140652381Y-106823810D01*
X139985714Y-105585714D02*
X140652381Y-105585714D01*
X139604762Y-105823810D02*
X140319048Y-106061905D01*
X140319048Y-105442857D01*
X140652381Y-105061905D02*
X139652381Y-105061905D01*
X140128571Y-105061905D02*
X140128571Y-104490476D01*
X140652381Y-104490476D02*
X139652381Y-104490476D01*
X140557143Y-103442857D02*
X140604762Y-103490476D01*
X140652381Y-103633333D01*
X140652381Y-103728571D01*
X140604762Y-103871429D01*
X140509524Y-103966667D01*
X140414286Y-104014286D01*
X140223810Y-104061905D01*
X140080952Y-104061905D01*
X139890476Y-104014286D01*
X139795238Y-103966667D01*
X139700000Y-103871429D01*
X139652381Y-103728571D01*
X139652381Y-103633333D01*
X139700000Y-103490476D01*
X139747619Y-103442857D01*
X139652381Y-102538095D02*
X139652381Y-103014286D01*
X140128571Y-103061905D01*
X140080952Y-103014286D01*
X140033333Y-102919048D01*
X140033333Y-102680952D01*
X140080952Y-102585714D01*
X140128571Y-102538095D01*
X140223810Y-102490476D01*
X140461905Y-102490476D01*
X140557143Y-102538095D01*
X140604762Y-102585714D01*
X140652381Y-102680952D01*
X140652381Y-102919048D01*
X140604762Y-103014286D01*
X140557143Y-103061905D01*
X140652381Y-102014286D02*
X140652381Y-101823810D01*
X140604762Y-101728571D01*
X140557143Y-101680952D01*
X140414286Y-101585714D01*
X140223810Y-101538095D01*
X139842857Y-101538095D01*
X139747619Y-101585714D01*
X139700000Y-101633333D01*
X139652381Y-101728571D01*
X139652381Y-101919048D01*
X139700000Y-102014286D01*
X139747619Y-102061905D01*
X139842857Y-102109524D01*
X140080952Y-102109524D01*
X140176190Y-102061905D01*
X140223810Y-102014286D01*
X140271429Y-101919048D01*
X140271429Y-101728571D01*
X140223810Y-101633333D01*
X140176190Y-101585714D01*
X140080952Y-101538095D01*
X139652381Y-100633333D02*
X139652381Y-101109524D01*
X140128571Y-101157143D01*
X140080952Y-101109524D01*
X140033333Y-101014286D01*
X140033333Y-100776190D01*
X140080952Y-100680952D01*
X140128571Y-100633333D01*
X140223810Y-100585714D01*
X140461905Y-100585714D01*
X140557143Y-100633333D01*
X140604762Y-100680952D01*
X140652381Y-100776190D01*
X140652381Y-101014286D01*
X140604762Y-101109524D01*
X140557143Y-101157143D01*
X143169524Y-125772381D02*
X142598095Y-125772381D01*
X142883809Y-125772381D02*
X142883809Y-124772381D01*
X142788571Y-124915238D01*
X142693333Y-125010476D01*
X142598095Y-125058095D01*
X144026667Y-124772381D02*
X143836190Y-124772381D01*
X143740952Y-124820000D01*
X143693333Y-124867619D01*
X143598095Y-125010476D01*
X143550476Y-125200952D01*
X143550476Y-125581905D01*
X143598095Y-125677143D01*
X143645714Y-125724762D01*
X143740952Y-125772381D01*
X143931429Y-125772381D01*
X144026667Y-125724762D01*
X144074286Y-125677143D01*
X144121905Y-125581905D01*
X144121905Y-125343810D01*
X144074286Y-125248571D01*
X144026667Y-125200952D01*
X143931429Y-125153333D01*
X143740952Y-125153333D01*
X143645714Y-125200952D01*
X143598095Y-125248571D01*
X143550476Y-125343810D01*
X144550476Y-125772381D02*
X144550476Y-124772381D01*
X144883810Y-125486667D01*
X145217143Y-124772381D01*
X145217143Y-125772381D01*
X145693333Y-125772381D02*
X145693333Y-124772381D01*
X145693333Y-125248571D02*
X146264762Y-125248571D01*
X146264762Y-125772381D02*
X146264762Y-124772381D01*
X146645714Y-125105714D02*
X147169524Y-125105714D01*
X146645714Y-125772381D01*
X147169524Y-125772381D01*
M02*
